<svg width="21" height="20" viewBox="0 0 21 20" fill="none" xmlns="http://www.w3.org/2000/svg">
<g opacity="0.4">
<path fill-rule="evenodd" clip-rule="evenodd" d="M10.292 2.00001C10.5572 2.00001 10.8116 2.10536 10.9991 2.2929C11.1866 2.48044 11.292 2.73479 11.292 3.00001V4.00001C11.292 4.26522 11.1866 4.51958 10.9991 4.70711C10.8116 4.89465 10.5572 5.00001 10.292 5.00001C10.0268 5.00001 9.77242 4.89465 9.58488 4.70711C9.39735 4.51958 9.29199 4.26522 9.29199 4.00001V3.00001C9.29199 2.73479 9.39735 2.48044 9.58488 2.2929C9.77242 2.10536 10.0268 2.00001 10.292 2.00001ZM14.292 10C14.292 11.0609 13.8706 12.0783 13.1204 12.8284C12.3703 13.5786 11.3529 14 10.292 14C9.23112 14 8.21371 13.5786 7.46356 12.8284C6.71342 12.0783 6.29199 11.0609 6.29199 10C6.29199 8.93914 6.71342 7.92172 7.46356 7.17158C8.21371 6.42143 9.23112 6.00001 10.292 6.00001C11.3529 6.00001 12.3703 6.42143 13.1204 7.17158C13.8706 7.92172 14.292 8.93914 14.292 10ZM13.828 14.95L14.535 15.657C14.7236 15.8392 14.9762 15.94 15.2384 15.9377C15.5006 15.9354 15.7514 15.8302 15.9368 15.6448C16.1222 15.4594 16.2274 15.2086 16.2297 14.9464C16.2319 14.6842 16.1311 14.4316 15.949 14.243L15.242 13.536C15.0534 13.3538 14.8008 13.2531 14.5386 13.2553C14.2764 13.2576 14.0256 13.3628 13.8402 13.5482C13.6548 13.7336 13.5496 13.9844 13.5473 14.2466C13.545 14.5088 13.6458 14.7614 13.828 14.95ZM15.948 4.34301C16.1355 4.53053 16.2408 4.78484 16.2408 5.05001C16.2408 5.31517 16.1355 5.56948 15.948 5.75701L15.242 6.46401C15.1497 6.55952 15.0394 6.6357 14.9174 6.68811C14.7954 6.74052 14.6642 6.7681 14.5314 6.76926C14.3986 6.77041 14.2669 6.74511 14.144 6.69483C14.0211 6.64455 13.9095 6.57029 13.8156 6.4764C13.7217 6.38251 13.6474 6.27086 13.5972 6.14796C13.5469 6.02506 13.5216 5.89338 13.5227 5.7606C13.5239 5.62782 13.5515 5.4966 13.6039 5.3746C13.6563 5.2526 13.7325 5.14225 13.828 5.05001L14.535 4.34301C14.7225 4.15553 14.9768 4.05022 15.242 4.05022C15.5072 4.05022 15.7615 4.15553 15.949 4.34301H15.948ZM17.292 11C17.5572 11 17.8116 10.8946 17.9991 10.7071C18.1866 10.5196 18.292 10.2652 18.292 10C18.292 9.73479 18.1866 9.48043 17.9991 9.2929C17.8116 9.10536 17.5572 9 17.292 9H16.292C16.0268 9 15.7724 9.10536 15.5849 9.2929C15.3973 9.48043 15.292 9.73479 15.292 10C15.292 10.2652 15.3973 10.5196 15.5849 10.7071C15.7724 10.8946 16.0268 11 16.292 11H17.292ZM10.292 15C10.5572 15 10.8116 15.1054 10.9991 15.2929C11.1866 15.4804 11.292 15.7348 11.292 16V17C11.292 17.2652 11.1866 17.5196 10.9991 17.7071C10.8116 17.8946 10.5572 18 10.292 18C10.0268 18 9.77242 17.8946 9.58488 17.7071C9.39735 17.5196 9.29199 17.2652 9.29199 17V16C9.29199 15.7348 9.39735 15.4804 9.58488 15.2929C9.77242 15.1054 10.0268 15 10.292 15ZM5.34199 6.46401C5.43484 6.55692 5.54507 6.63063 5.6664 6.68094C5.78774 6.73124 5.91779 6.75716 6.04914 6.75721C6.18049 6.75725 6.31056 6.73143 6.43193 6.68121C6.55329 6.63099 6.66358 6.55735 6.75649 6.46451C6.8494 6.37166 6.92311 6.26143 6.97342 6.14009C7.02373 6.01876 7.04965 5.88871 7.04969 5.75736C7.04974 5.62601 7.02392 5.49594 6.97369 5.37457C6.92347 5.2532 6.84984 5.14292 6.75699 5.05001L6.04899 4.34301C5.86039 4.16085 5.60779 4.06005 5.34559 4.06233C5.08339 4.06461 4.83258 4.16978 4.64717 4.35519C4.46176 4.54059 4.3566 4.79141 4.35432 5.0536C4.35204 5.3158 4.45283 5.5684 4.63499 5.75701L5.34199 6.46401ZM6.75599 14.95L6.04899 15.657C5.86039 15.8392 5.60779 15.94 5.34559 15.9377C5.08339 15.9354 4.83258 15.8302 4.64717 15.6448C4.46176 15.4594 4.3566 15.2086 4.35432 14.9464C4.35204 14.6842 4.45283 14.4316 4.63499 14.243L5.34199 13.536C5.53059 13.3538 5.7832 13.2531 6.04539 13.2553C6.30759 13.2576 6.5584 13.3628 6.74381 13.5482C6.92922 13.7336 7.03439 13.9844 7.03667 14.2466C7.03894 14.5088 6.93815 14.7614 6.75599 14.95ZM4.29199 11C4.55721 11 4.81156 10.8946 4.9991 10.7071C5.18663 10.5196 5.29199 10.2652 5.29199 10C5.29199 9.73479 5.18663 9.48043 4.9991 9.2929C4.81156 9.10536 4.55721 9 4.29199 9H3.29199C3.02678 9 2.77242 9.10536 2.58489 9.2929C2.39735 9.48043 2.29199 9.73479 2.29199 10C2.29199 10.2652 2.39735 10.5196 2.58489 10.7071C2.77242 10.8946 3.02678 11 3.29199 11H4.29199Z" fill="white"/>
</g>
</svg>
