<svg width="40" height="40" viewBox="0 0 40 40" fill="none" xmlns="http://www.w3.org/2000/svg">
<circle opacity="0.15" cx="20" cy="20" r="20" fill="#C4C4C4"/>
<g opacity="0.7">
<path d="M19 16C19 16.7956 18.6839 17.5587 18.1213 18.1213C17.5587 18.6839 16.7956 19 16 19C15.2044 19 14.4413 18.6839 13.8787 18.1213C13.3161 17.5587 13 16.7956 13 16C13 15.2044 13.3161 14.4413 13.8787 13.8787C14.4413 13.3161 15.2044 13 16 13C16.7956 13 17.5587 13.3161 18.1213 13.8787C18.6839 14.4413 19 15.2044 19 16ZM27 16C27 16.394 26.9224 16.7841 26.7716 17.1481C26.6209 17.512 26.3999 17.8427 26.1213 18.1213C25.8427 18.3999 25.512 18.6209 25.1481 18.7716C24.7841 18.9224 24.394 19 24 19C23.606 19 23.2159 18.9224 22.8519 18.7716C22.488 18.6209 22.1573 18.3999 21.8787 18.1213C21.6001 17.8427 21.3791 17.512 21.2284 17.1481C21.0776 16.7841 21 16.394 21 16C21 15.2044 21.3161 14.4413 21.8787 13.8787C22.4413 13.3161 23.2044 13 24 13C24.7956 13 25.5587 13.3161 26.1213 13.8787C26.6839 14.4413 27 15.2044 27 16ZM22.93 27C22.976 26.673 23 26.34 23 26C23.0023 24.4289 22.4737 22.903 21.5 21.67C22.2601 21.2312 23.1223 21.0001 24 21.0001C24.8776 21.0001 25.7399 21.2311 26.4999 21.67C27.26 22.1088 27.8912 22.74 28.3301 23.5C28.7689 24.2601 29 25.1223 29 26V27H22.93ZM16 21C17.3261 21 18.5979 21.5268 19.5355 22.4645C20.4732 23.4021 21 24.6739 21 26V27H11V26C11 24.6739 11.5268 23.4021 12.4645 22.4645C13.4021 21.5268 14.6739 21 16 21Z" fill="#FAFAFA"/>
</g>
</svg>
