<svg width="40" height="40" viewBox="0 0 40 40" fill="none" xmlns="http://www.w3.org/2000/svg">
<circle opacity="0.15" cx="20" cy="20" r="20" fill="#C4C4C4"/>
<g opacity="0.7">
<path d="M12 16C12 15.4696 12.2107 14.9609 12.5858 14.5858C12.9609 14.2107 13.4696 14 14 14H19L21 16H26C26.5304 16 27.0391 16.2107 27.4142 16.5858C27.7893 16.9609 28 17.4696 28 18V24C28 24.5304 27.7893 25.0391 27.4142 25.4142C27.0391 25.7893 26.5304 26 26 26H14C13.4696 26 12.9609 25.7893 12.5858 25.4142C12.2107 25.0391 12 24.5304 12 24V16Z" fill="#FAFAFA"/>
</g>
</svg>
