<svg width="134" height="39" viewBox="0 0 134 39" fill="none" xmlns="http://www.w3.org/2000/svg">
<path d="M40.0179 31C39.1053 31 38.3689 30.7407 37.8088 30.2221C37.2695 29.6828 36.9999 28.9776 36.9999 28.1064V9.22011H41.2936V27.2663H53.117V31H40.0179ZM59.8031 31.2489C58.1645 31.2489 56.8473 30.6992 55.8516 29.5999C54.856 28.4798 54.3582 27.0174 54.3582 25.2128V15.474H58.5897V25.275C58.5897 25.9595 58.7556 26.5196 59.0875 26.9552C59.4401 27.37 59.8965 27.5774 60.4565 27.5774H62.2611C62.9457 27.5774 63.5679 27.2974 64.128 26.7374C64.688 26.1566 65.0822 25.3995 65.3103 24.466V15.474H69.5419V31H65.6215V29.0087C65.1444 29.6725 64.5532 30.2118 63.848 30.6266C63.1635 31.0415 62.4997 31.2489 61.8567 31.2489H59.8031ZM72.5181 15.474H76.4385V17.3409C76.8948 16.6979 77.486 16.1897 78.212 15.8163C78.938 15.4222 79.664 15.2251 80.39 15.2251H82.2568C83.9163 15.2251 85.2438 15.7437 86.2394 16.7808C87.2558 17.818 87.764 19.187 87.764 20.8879V31H83.5325V21.0435C83.5325 20.4005 83.3562 19.8819 83.0036 19.4878C82.6717 19.0937 82.2361 18.8966 81.6968 18.8966H79.8299C79.1039 18.8966 78.4505 19.1663 77.8697 19.7056C77.3097 20.2241 76.9363 20.9087 76.7496 21.7591V31H72.5181V15.474ZM103.433 25.9284H95.2815L93.3524 31H88.872L97.3973 9.22011H99.3263C100.675 9.22011 101.587 9.84239 102.064 11.087L109.812 31H105.331L103.433 25.9284ZM96.4327 22.3192H102.282L99.3886 14.4784H99.3575L96.4327 22.3192ZM111.108 15.474H115.029V17.4654C115.423 16.8638 115.983 16.3764 116.709 16.003C117.455 15.6089 118.233 15.4118 119.042 15.4118H121.158V19.0833H119.042C117.943 19.0833 117.051 19.4152 116.366 20.0789C115.682 20.7427 115.34 21.5932 115.34 22.6303V31H111.108V15.474ZM129.18 31C127.354 31 126.016 30.5851 125.166 29.7554C124.315 28.9257 123.89 27.6397 123.89 25.8973V19.0833H121.152V15.474H124.015V10.7758H128.122V15.474H132.167V19.0833H128.122V25.7106C128.122 26.2914 128.225 26.7166 128.433 26.9863C128.661 27.2559 129.014 27.3908 129.491 27.3908H132.167V31H129.18Z" fill="#FAFAFA"/>
<path fill-rule="evenodd" clip-rule="evenodd" d="M8.91175 10.9388C9.26251 9.61091 9.11982 8.20087 8.51002 6.97018C10.5516 7.5304 11.9432 8.40904 12.6444 9.60894C13.1977 10.5927 13.3184 11.7619 12.9775 12.8379L12.8951 13.1161L11.2398 14.0147C10.3257 13.5504 8.49018 12.3617 8.81987 11.2489L8.83608 11.1942L8.91175 10.9388ZM24.2768 35.655C20.0495 33.0284 13.5767 18.9765 12.5636 16.7367L14.7686 15.5396C16.0997 17.6107 24.3464 30.7149 24.2768 35.655Z" fill="#ED9361"/>
<path fill-rule="evenodd" clip-rule="evenodd" d="M5.71175 8.36475C-0.090858 12.8586 -1.77333 21.0759 2.06329 27.5543C5.52906 33.4065 12.404 35.9915 18.6616 34.2782C18.5223 34.0888 18.386 33.8992 18.2527 33.7107C16.9414 31.8558 15.6413 29.6713 14.4772 27.5609C12.1449 23.3325 10.234 19.1726 9.71494 18.0252L8.93352 16.2976C8.45375 15.9975 7.91979 15.6157 7.43513 15.1653C7.02564 14.7847 6.51337 14.2294 6.14376 13.5029C5.75736 12.7434 5.44864 11.6215 5.82217 10.3607L5.83838 10.306L5.89821 10.1041C6.04319 9.52073 5.97735 8.90459 5.71175 8.36475ZM23.4755 31.9582C23.0979 32.2332 22.7039 32.4927 22.2939 32.7356C22.0902 32.8562 21.8848 32.9714 21.6779 33.0811C20.5913 31.6945 19.4648 29.949 18.3874 28.1137C17.2751 26.2189 16.2152 24.2283 15.306 22.4382C14.0312 19.9282 13.0525 17.8122 12.6409 16.907L12.6061 16.8305L12.5636 16.7366L12.5923 16.7211C13.8371 17.5683 15.2119 18.1905 16.6504 18.5706C17.0818 19.2853 17.5578 20.087 18.055 20.9463C19.0603 22.6839 20.152 24.6566 21.1361 26.6201C22.0666 28.4765 22.901 30.3247 23.4755 31.9582ZM25.9569 29.674C29.2654 25.8371 30.4006 20.4962 28.8618 15.6073C28.2197 16.1864 27.5108 16.7106 26.7381 17.1682C24.7866 18.3239 22.6583 18.9187 20.5406 19.0006C21.2665 20.2466 22.0454 21.6256 22.8054 23.0476C23.9414 25.1732 25.0658 27.451 25.9096 29.5555C25.9254 29.5949 25.9412 29.6344 25.9569 29.674Z" fill="#FAFAFA"/>
<path fill-rule="evenodd" clip-rule="evenodd" d="M5.71175 8.36475C-0.090858 12.8586 -1.77333 21.0759 2.06329 27.5543C5.52906 33.4065 12.404 35.9915 18.6616 34.2782C18.5223 34.0888 18.386 33.8992 18.2527 33.7107C16.9414 31.8558 15.6413 29.6713 14.4772 27.5609C12.1449 23.3325 10.234 19.1726 9.71494 18.0252L8.93352 16.2976C8.45375 15.9975 7.91979 15.6157 7.43513 15.1653C7.02564 14.7847 6.51337 14.2294 6.14376 13.5029C5.75736 12.7434 5.44864 11.6215 5.82217 10.3607L5.83838 10.306L5.89821 10.1041C6.04319 9.52073 5.97735 8.90459 5.71175 8.36475ZM23.4755 31.9582C23.0979 32.2332 22.7039 32.4927 22.2939 32.7356C22.0902 32.8562 21.8848 32.9714 21.6779 33.0811C20.5913 31.6945 19.4648 29.949 18.3874 28.1137C17.2751 26.2189 16.2152 24.2283 15.306 22.4382C14.0312 19.9282 13.0525 17.8122 12.6409 16.907L12.6061 16.8305L12.5636 16.7366L12.5923 16.7211C13.8371 17.5683 15.2119 18.1905 16.6504 18.5706C17.0818 19.2853 17.5578 20.087 18.055 20.9463C19.0603 22.6839 20.152 24.6566 21.1361 26.6201C22.0666 28.4765 22.901 30.3247 23.4755 31.9582ZM25.9569 29.674C29.2654 25.8371 30.4006 20.4962 28.8618 15.6073C28.2197 16.1864 27.5108 16.7106 26.7381 17.1682C24.7866 18.3239 22.6583 18.9187 20.5406 19.0006C21.2665 20.2466 22.0454 21.6256 22.8054 23.0476C23.9414 25.1732 25.0658 27.451 25.9096 29.5555C25.9254 29.5949 25.9412 29.6344 25.9569 29.674Z" fill="url(#paint0_radial_1424_1962)"/>
<defs>
<radialGradient id="paint0_radial_1424_1962" cx="0" cy="0" r="1" gradientUnits="userSpaceOnUse" gradientTransform="translate(6.20896 9.64344) rotate(58.5038) scale(31.4963 34.862)">
<stop offset="0.229242" stop-color="#F29078"/>
<stop offset="1" stop-color="#EB945B"/>
</radialGradient>
</defs>
</svg>
