<svg width="42" height="42" viewBox="0 0 42 42" fill="none" xmlns="http://www.w3.org/2000/svg">
<circle cx="21" cy="21" r="20" fill="#EF784E" fill-opacity="0.1" stroke="url(#paint0_linear_1813_5226)" stroke-opacity="0.4"/>
<path fill-rule="evenodd" clip-rule="evenodd" d="M14.1711 16.1718C14.9213 15.422 15.9385 15.0007 16.9991 15.0007C18.0598 15.0007 19.077 15.422 19.8271 16.1718L20.9991 17.3428L22.1711 16.1718C22.5401 15.7898 22.9815 15.4851 23.4695 15.2754C23.9575 15.0658 24.4824 14.9554 25.0135 14.9508C25.5447 14.9462 26.0714 15.0474 26.563 15.2485C27.0545 15.4497 27.5012 15.7467 27.8767 16.1223C28.2523 16.4978 28.5493 16.9444 28.7504 17.436C28.9516 17.9276 29.0528 18.4543 29.0481 18.9854C29.0435 19.5166 28.9332 20.0414 28.7236 20.5295C28.5139 21.0175 28.2092 21.4588 27.8271 21.8278L20.9991 28.6568L14.1711 21.8278C13.4213 21.0777 13 20.0605 13 18.9998C13 17.9392 13.4213 16.9219 14.1711 16.1718V16.1718Z" stroke="#EF784E"/>
<defs>
<linearGradient id="paint0_linear_1813_5226" x1="1" y1="1" x2="45.1013" y2="6.19706" gradientUnits="userSpaceOnUse">
<stop stop-color="white" stop-opacity="0.2"/>
<stop offset="1" stop-color="white" stop-opacity="0.4"/>
</linearGradient>
</defs>
</svg>
