<svg width="24" height="24" viewBox="0 0 24 24" fill="none" xmlns="http://www.w3.org/2000/svg">
<g clip-path="url(#clip0_1424_1956)">
<path d="M13.0214 13.0895L11.2933 14.8176L9.18216 12.7064L10.9102 10.9784C11.2931 10.5955 11.2931 9.97238 10.9102 9.5895C10.5273 9.20658 9.90423 9.20658 9.5213 9.5895L7.79321 11.3175L6.92531 10.4497C6.6952 10.2195 6.32205 10.2195 6.09193 10.4497L4.83826 11.7033C4.60814 11.9334 4.60814 12.3065 4.83826 12.5366L5.02537 12.7238L2.19251 15.5566C2.06064 15.6885 1.99898 15.875 2.02629 16.0595L2.46283 19.0093L0.172586 21.2995C-0.0575285 21.5296 -0.0575285 21.9027 0.172586 22.1328L1.867 23.8272C2.09711 24.0574 2.47021 24.0574 2.70032 23.8272L4.99063 21.5369L7.94039 21.9735C8.12487 22.0007 8.31147 21.9392 8.44328 21.8072L11.2761 18.9744L11.4632 19.1615C11.6933 19.3916 12.0665 19.3916 12.2966 19.1615L13.5502 17.9078C13.7804 17.6778 13.7804 17.3045 13.5502 17.0745L12.6823 16.2066L14.4103 14.4785C14.7932 14.0956 14.7932 13.4725 14.4103 13.0896C14.0273 12.7067 13.4044 12.7067 13.0214 13.0895Z" fill="#EF784E"/>
<path d="M23.8276 1.86709L22.1332 0.172565C21.9032 -0.0574376 21.53 -0.0574376 21.2999 0.172565L19.0096 2.46293L16.0598 2.02632C15.8753 1.99907 15.6888 2.06067 15.5569 2.19265L12.7241 5.02546L12.537 4.83829C12.3069 4.60824 11.9338 4.60812 11.7036 4.83829L10.4499 6.09197C10.2198 6.32208 10.2198 6.69518 10.4499 6.92535L17.0748 13.5502C17.3049 13.7803 17.6781 13.7803 17.9082 13.5502L19.1619 12.2965C19.3919 12.0664 19.3919 11.6932 19.1619 11.4632L18.9748 11.2761L21.8076 8.44321C21.9394 8.31139 22.0011 8.1249 21.9738 7.94031L21.5373 4.9906L23.8276 2.7003C24.0578 2.47024 24.0578 2.09703 23.8276 1.86709Z" fill="#EF784E"/>
</g>
<defs>
<clipPath id="clip0_1424_1956">
<rect width="24" height="24" fill="white"/>
</clipPath>
</defs>
</svg>
