<svg width="42" height="42" viewBox="0 0 42 42" fill="none" xmlns="http://www.w3.org/2000/svg">
<circle cx="21" cy="21" r="20" fill="#FB7F8D" fill-opacity="0.1" stroke="#FB7F8D" stroke-opacity="0.1"/>
<path fill-rule="evenodd" clip-rule="evenodd" d="M14.6282 18.7877C15.3283 18.0989 16.2777 17.7119 17.2677 17.7119C18.2576 17.7119 19.2071 18.0989 19.9072 18.7877L21.001 19.8633L22.0949 18.7877C22.4393 18.4368 22.8512 18.1569 23.3067 17.9643C23.7622 17.7717 24.2521 17.6704 24.7478 17.6662C25.2435 17.6619 25.7351 17.7549 26.1939 17.9396C26.6527 18.1243 27.0696 18.3972 27.4201 18.7421C27.7706 19.0871 28.0478 19.4973 28.2356 19.9488C28.4233 20.4004 28.5177 20.8842 28.5134 21.372C28.5091 21.8599 28.4061 22.342 28.2105 22.7902C28.0148 23.2385 27.7304 23.6439 27.3738 23.9828L21.001 30.2554L14.6282 23.9828C13.9283 23.2938 13.5352 22.3595 13.5352 21.3852C13.5352 20.411 13.9283 19.4767 14.6282 18.7877Z" fill="#FB7F8D"/>
<path opacity="0.7" d="M19.8223 12.5451V14.2073C19.8223 14.6516 20.1881 15.0117 20.6396 15.0117C21.091 15.0117 21.4569 14.6516 21.4569 14.2073V12.5451C21.4569 12.1008 21.091 11.7407 20.6396 11.7407C20.1881 11.7407 19.8223 12.1008 19.8223 12.5451Z" fill="#FB7F8D"/>
<path opacity="0.3" d="M24.9657 13.8739L23.8098 15.0115C23.4905 15.3257 23.4905 15.8349 23.8098 16.1491C24.129 16.4631 24.6464 16.4631 24.9657 16.1491L26.1214 15.0115C26.4407 14.6973 26.4407 14.1881 26.1214 13.8739C25.8021 13.5599 25.2847 13.5599 24.9657 13.8739Z" fill="#FB7F8D"/>
<path opacity="0.3" d="M15.1574 13.874C14.8382 14.1882 14.8382 14.6974 15.1574 15.0116L16.3131 16.1492C16.6324 16.4632 17.1498 16.4632 17.4691 16.1492C17.7881 15.835 17.7881 15.3258 17.4691 15.0116L16.3131 13.874C15.9941 13.5601 15.4765 13.5601 15.1574 13.874Z" fill="#FB7F8D"/>
</svg>
