<svg width="21" height="18" viewBox="0 0 21 18" fill="none" xmlns="http://www.w3.org/2000/svg">
<path d="M17.25 15.75C17.25 16.195 17.118 16.63 16.8708 17C16.6236 17.3701 16.2722 17.6584 15.861 17.8287C15.4499 17.999 14.9975 18.0436 14.561 17.9568C14.1246 17.87 13.7237 17.6557 13.409 17.341C13.0943 17.0263 12.88 16.6254 12.7932 16.189C12.7064 15.7525 12.751 15.3001 12.9213 14.889C13.0916 14.4778 13.38 14.1264 13.75 13.8792C14.12 13.632 14.555 13.5 15 13.5C15.5965 13.5007 16.1685 13.7379 16.5903 14.1597C17.0121 14.5816 17.2493 15.1535 17.25 15.75ZM9 13.5C8.55499 13.5 8.11998 13.632 7.74997 13.8792C7.37996 14.1264 7.09157 14.4778 6.92127 14.889C6.75097 15.3001 6.70642 15.7525 6.79323 16.189C6.88005 16.6254 7.09434 17.0263 7.40901 17.341C7.72368 17.6557 8.12459 17.87 8.56105 17.9568C8.9975 18.0436 9.4499 17.999 9.86104 17.8287C10.2722 17.6584 10.6236 17.3701 10.8708 17C11.118 16.63 11.25 16.195 11.25 15.75C11.2493 15.1535 11.0121 14.5816 10.5903 14.1597C10.1685 13.7379 9.59654 13.5007 9 13.5ZM20.699 4.86987L19.6985 10.8699C19.6124 11.3959 19.3418 11.8741 18.9351 12.2187C18.5284 12.5632 18.0123 12.7516 17.4792 12.75H7.17114C6.66923 12.7506 6.18158 12.5831 5.78598 12.2741C5.39039 11.9652 5.10964 11.5327 4.98853 11.0457C4.77103 10.236 2.92198 2.53166 2.63086 2.01266C2.58099 1.86331 2.4854 1.73345 2.35763 1.64144C2.22987 1.54943 2.07639 1.49995 1.91894 1.5H0.75C0.551088 1.5 0.360322 1.42098 0.21967 1.28033C0.0790176 1.13968 0 0.948914 0 0.750001C0 0.551089 0.0790176 0.360323 0.21967 0.219671C0.360322 0.0790186 0.551088 7.74999e-07 0.75 7.74999e-07H1.91894C2.39124 -0.000391366 2.85165 0.14804 3.23478 0.424213C3.61791 0.700386 3.90429 1.09026 4.05323 1.53845L4.29025 2.25H18.479C18.8058 2.2499 19.1288 2.321 19.4253 2.45836C19.7219 2.59572 19.9849 2.79604 20.1962 3.04539C20.4075 3.29473 20.5619 3.58712 20.6488 3.9022C20.7356 4.21728 20.7527 4.5475 20.699 4.86987H20.699ZM9.75 6C9.75 5.80109 9.67098 5.61033 9.53033 5.46967C9.38968 5.32902 9.19891 5.25 9 5.25C8.80109 5.25 8.61032 5.32902 8.46967 5.46967C8.32902 5.61033 8.25 5.80109 8.25 6V9C8.25 9.19892 8.32902 9.38968 8.46967 9.53034C8.61032 9.67099 8.80109 9.75001 9 9.75001C9.19891 9.75001 9.38968 9.67099 9.53033 9.53034C9.67098 9.38968 9.75 9.19892 9.75 9V6ZM12.75 6C12.75 5.80109 12.671 5.61033 12.5303 5.46967C12.3897 5.32902 12.1989 5.25 12 5.25C11.8011 5.25 11.6103 5.32902 11.4697 5.46967C11.329 5.61033 11.25 5.80109 11.25 6V9C11.25 9.19892 11.329 9.38968 11.4697 9.53034C11.6103 9.67099 11.8011 9.75001 12 9.75001C12.1989 9.75001 12.3897 9.67099 12.5303 9.53034C12.671 9.38968 12.75 9.19892 12.75 9V6ZM15.75 6C15.75 5.80109 15.671 5.61033 15.5303 5.46967C15.3897 5.32902 15.1989 5.25 15 5.25C14.8011 5.25 14.6103 5.32902 14.4697 5.46967C14.329 5.61033 14.25 5.80109 14.25 6V9C14.25 9.19892 14.329 9.38968 14.4697 9.53034C14.6103 9.67099 14.8011 9.75001 15 9.75001C15.1989 9.75001 15.3897 9.67099 15.5303 9.53034C15.671 9.38968 15.75 9.19892 15.75 9V6Z" fill="#020210"/>
</svg>
