<svg width="16" height="16" viewBox="0 0 16 16" fill="none" xmlns="http://www.w3.org/2000/svg">
<path d="M14.9356 8.20724C14.8712 8.07552 14.8712 7.92446 14.9356 7.79277L15.5324 6.57199C15.8646 5.89228 15.6014 5.08213 14.9331 4.72754L13.7327 4.09066C13.6033 4.02198 13.5145 3.89973 13.4891 3.75538L13.2544 2.41699C13.1237 1.6718 12.4344 1.17105 11.6854 1.27702L10.34 1.46733C10.1948 1.48783 10.0512 1.44115 9.94584 1.33924L8.96925 0.394495C8.42547 -0.131564 7.5736 -0.131595 7.02986 0.394495L6.05324 1.33933C5.94786 1.44127 5.80427 1.48786 5.65908 1.46743L4.31369 1.27712C3.56447 1.17109 2.87541 1.6719 2.7447 2.41708L2.50995 3.75542C2.4846 3.89979 2.39582 4.02201 2.26636 4.09073L1.06605 4.7276C0.397742 5.08216 0.134494 5.89237 0.466741 6.57209L1.06346 7.79283C1.12783 7.92455 1.12783 8.07561 1.06346 8.2073L0.46671 9.42804C0.134462 10.1078 0.397711 10.9179 1.06602 11.2725L2.26632 11.9094C2.39582 11.9781 2.4846 12.1003 2.50995 12.2447L2.7447 13.5831C2.86369 14.2614 3.44538 14.7372 4.11391 14.7371C4.17975 14.7371 4.24656 14.7325 4.31372 14.723L5.65911 14.5327C5.80421 14.5121 5.94789 14.5589 6.05327 14.6608L7.02986 15.6055C7.30179 15.8686 7.6506 16.0001 7.99954 16C8.34838 16 8.69741 15.8685 8.96922 15.6055L9.94584 14.6608C10.0512 14.5589 10.1948 14.5123 10.34 14.5327L11.6854 14.723C12.4347 14.829 13.1237 14.3282 13.2544 13.583L13.4892 12.2447C13.5145 12.1003 13.6033 11.9781 13.7327 11.9094L14.9331 11.2725C15.6014 10.9179 15.8646 10.1077 15.5324 9.42801L14.9356 8.20724ZM6.15389 3.84735C7.08676 3.84735 7.84573 4.60632 7.84573 5.53919C7.84573 6.47206 7.08676 7.23102 6.15389 7.23102C5.22102 7.23102 4.46206 6.47206 4.46206 5.53919C4.46206 4.60632 5.22102 3.84735 6.15389 3.84735ZM5.28065 11.3714C5.19056 11.4615 5.07246 11.5065 4.9544 11.5065C4.83634 11.5065 4.71821 11.4615 4.62815 11.3714C4.44797 11.1912 4.44797 10.899 4.62815 10.7188L10.7184 4.6286C10.8986 4.44841 11.1907 4.44841 11.3709 4.6286C11.5511 4.80878 11.5511 5.10094 11.3709 5.28113L5.28065 11.3714ZM9.84512 12.1527C8.91225 12.1527 8.15329 11.3937 8.15329 10.4608C8.15329 9.52798 8.91225 8.76901 9.84512 8.76901C10.778 8.76901 11.537 9.52798 11.537 10.4608C11.537 11.3937 10.778 12.1527 9.84512 12.1527Z" fill="#93E396"/>
</svg>
