<svg width="75" height="76" viewBox="0 0 75 76" fill="none" xmlns="http://www.w3.org/2000/svg">
<ellipse opacity="0.06" cx="37.5616" cy="38.1416" rx="37.42" ry="37.3149" fill="#ED694A"/>
<ellipse opacity="0.04" cx="37.5615" cy="44.4483" rx="31.1133" ry="31.0082" fill="#F4D44E"/>
<circle opacity="0.04" cx="37.5614" cy="50.0192" r="24.8065" fill="#F4D44E"/>
<path d="M50.2198 35.4936C49.013 34.1761 47.1369 32.3978 46.3387 36.4131C46.0673 37.7784 45.4331 38.8308 44.8897 39.6781C44.3039 36.7135 42.5416 33.645 40.881 31.576C40.2596 30.8019 38.0548 27.7248 37.6313 22.5768C37.568 21.8085 36.6554 21.4478 36.0846 21.966C30.6295 26.918 27.6352 33.7288 27.5241 41.3962C27.5241 41.3962 25.2525 39.4816 24.0185 35.9195C23.6862 34.9603 22.4002 34.7773 21.8423 35.6255C21.7352 35.7883 21.6359 35.9514 21.5463 36.1098C17.3375 43.5519 15.3128 52.5892 17.1846 60.9972C20.3141 75.078 41.0155 79.0146 51.9749 70.1645C62.6975 61.5059 59.2891 45.3902 50.2198 35.4936Z" fill="#ED694A"/>
<path d="M20.0975 61.8811C18.2475 53.3833 20.2057 44.2579 24.3157 36.6993C24.2118 36.4486 24.1118 36.1892 24.0184 35.9196C23.6861 34.9604 22.4001 34.7774 21.8422 35.6255C21.7351 35.7884 21.6359 35.9515 21.5463 36.1098C17.3375 43.5519 15.3128 52.5893 17.1846 60.9973C18.612 67.4198 23.6957 71.7306 29.8429 73.6815C25.0474 71.3585 21.2919 67.3763 20.0975 61.8811Z" fill="#D8553A"/>
<path d="M30.4508 41.2552C30.6781 34.2964 33.195 28.0566 37.6999 23.2631C37.6689 22.9991 37.6459 22.7631 37.6311 22.5839C37.5665 21.8091 36.6873 21.4204 36.1189 21.9342C30.8501 26.6978 27.6387 33.4396 27.5234 41.3961L28.5096 42.1619C28.9952 42.5391 29.6533 42.5227 30.1171 42.1772C30.3938 41.9426 30.4335 41.5886 30.4508 41.2552Z" fill="#D8553A"/>
<path d="M46.9106 45.7867C46.0193 44.8136 44.6335 43.5 44.044 46.4659C43.8436 47.4742 43.375 48.2517 42.9739 48.8776C42.5413 46.6878 41.2395 44.4212 40.013 42.8931C39.554 42.3214 37.9256 40.0486 37.6126 36.246C37.5659 35.6785 36.8919 35.4122 36.4703 35.7949C32.4411 39.4525 30.2294 44.4832 30.1474 50.1464C30.1474 50.1464 28.4695 48.7322 27.5581 46.1013C27.3127 45.3928 26.3628 45.2576 25.9507 45.8841C25.8717 46.0043 25.7983 46.1249 25.7321 46.2418C22.6233 51.7387 21.1279 58.4138 22.5103 64.6242C24.8219 75.0246 40.1123 77.9323 48.2072 71.3954C56.127 65.0001 53.6095 53.0967 46.9106 45.7867Z" fill="#F4A32C"/>
<path d="M25.3934 65.4403C24.1694 59.3694 25.4371 52.8554 28.125 47.431C27.9202 47.03 27.7261 46.5866 27.558 46.1016C27.3126 45.3932 26.3627 45.2579 25.9506 45.8844C25.8716 46.0046 25.7982 46.1252 25.732 46.2422C22.6233 51.7391 21.128 58.4142 22.5102 64.6245C23.5853 69.4616 27.4682 72.6769 32.1284 74.076C28.8174 72.4156 26.2104 69.4983 25.3934 65.4403Z" fill="#E89528"/>
<path d="M43.8902 55.1839C43.2869 54.5252 42.3486 53.6359 41.9496 55.6437C41.814 56.3264 41.4967 56.8525 41.2251 57.2762C40.9321 55.7938 40.0511 54.2596 39.2207 53.2251C38.9101 52.8381 37.8077 51.2996 37.5958 48.7255C37.5641 48.3413 37.1079 48.1609 36.8225 48.4201C34.0949 50.8961 32.5978 54.3016 32.5423 58.1352C32.5423 58.1352 31.4064 57.1778 30.7895 55.3969C30.6234 54.9174 29.9804 54.8259 29.7015 55.2499C29.6479 55.3312 29.5983 55.4128 29.5534 55.492C27.4491 59.2131 26.4367 63.7317 27.3725 67.9358C28.9373 74.9762 39.288 76.9445 44.7676 72.5194C46.6441 71.0041 47.8076 68.8689 48.0435 66.507C48.3997 62.9296 47.0229 58.6024 43.8902 55.1839Z" fill="#F4D44E"/>
<path d="M41.0868 63.9044C40.7506 63.5374 40.228 63.042 40.0056 64.1604C39.9301 64.5408 39.7534 64.834 39.602 65.07C39.4388 64.2441 38.9479 63.3893 38.4853 62.8131C38.3123 62.5974 37.698 61.7402 37.5799 60.3062C37.5623 60.0921 37.308 59.9917 37.1491 60.136C35.6296 61.5155 34.7954 63.4127 34.7645 65.5485C34.7645 65.5485 34.1317 65.0151 33.788 64.0229C33.6954 63.7556 33.3372 63.7046 33.1819 63.941C33.152 63.9864 33.1244 64.0318 33.0995 64.076C31.9271 66.1491 31.3631 68.6665 31.8845 71.0087C33.0718 76.3506 42.804 76.1887 43.4009 70.2126C43.5991 68.2197 42.832 65.8088 41.0868 63.9044Z" fill="#EAE9E8"/>
<path d="M34.1441 72.0689C33.6227 69.9737 34.1868 67.7217 35.3592 65.8673C35.3841 65.8278 35.4118 65.7872 35.4415 65.7466C35.5969 65.5352 35.9551 65.5808 36.0476 65.8198C36.3914 66.7074 37.0242 67.1846 37.0242 67.1846C37.0496 65.6147 37.6183 64.1897 38.6628 63.0467C38.4292 62.7232 37.7146 61.9432 37.5799 60.3063C37.5623 60.0922 37.3081 59.9919 37.1491 60.1361C35.6296 61.5156 34.7954 63.4129 34.7645 65.5487C34.7645 65.5487 34.1317 65.0153 33.788 64.0232C33.6955 63.7559 33.3372 63.7049 33.1819 63.9413C33.152 63.9866 33.1244 64.0321 33.0995 64.0762C31.9271 66.1493 31.3631 68.6668 31.8845 71.009C32.367 73.18 34.3492 74.4847 36.5407 74.7996C35.3585 74.219 34.45 73.2998 34.1441 72.0689Z" fill="#F7E7A1"/>
<path d="M28.8548 24.6626C31.3007 22.6733 31.2952 18.9514 28.8548 16.9666C26.409 18.9558 26.4143 22.6778 28.8548 24.6626Z" fill="#D8553A"/>
<path d="M58.1697 40.6288C60.6155 38.6395 60.61 34.9177 58.1697 32.9328C57.0518 33.842 55.7293 38.644 58.1697 40.6288Z" fill="#D8553A"/>
<path d="M14.8513 42.1437C16.614 40.7099 16.6101 38.0277 14.8513 36.5971C14.0457 37.2523 13.0925 40.7132 14.8513 42.1437Z" fill="#D8553A"/>
<path d="M45.3801 30.2093C47.1428 28.7755 47.1389 26.0933 45.3801 24.6627C43.6174 26.0964 43.6214 28.7788 45.3801 30.2093Z" fill="#D8553A"/>
<path d="M32.3965 49.2372C32.8013 44.4584 34.6262 40.2093 37.6903 36.97C37.6593 36.7352 37.6332 36.4942 37.6128 36.2464C37.5661 35.6788 36.8922 35.4125 36.4705 35.7952C33.2777 38.6935 31.2285 42.4548 30.4736 46.7091L30.4725 46.7088C30.4165 47.0244 30.3471 47.484 30.3032 47.8451C30.3033 47.8455 30.3034 47.8457 30.3037 47.846C30.2119 48.5997 30.1588 49.367 30.1475 50.1469C30.2327 50.1635 32.1632 51.1557 32.3965 49.2372Z" fill="#E89528"/>
<path d="M30.1931 68.9346C29.3613 65.0072 30.0698 60.819 31.7156 57.1902C31.3968 56.7431 31.0479 56.1425 30.7896 55.397C30.6234 54.9174 29.9805 54.8259 29.7015 55.2499C29.648 55.3313 29.5982 55.4129 29.5534 55.4921C27.4491 59.2131 26.4367 63.7317 27.3725 67.9358C28.1054 71.233 30.7652 73.4176 33.9491 74.3542C32.0959 73.1239 30.694 71.3029 30.1931 68.9346Z" fill="#E8C842"/>
<path d="M35.5445 56.4191C35.8202 54.4483 36.6263 52.2769 37.8952 50.4615C37.757 49.9489 37.6483 49.3697 37.5953 48.7256C37.5636 48.3414 37.1073 48.161 36.822 48.4202C35.1225 49.963 33.9027 51.8674 33.2097 54.0106L33.2079 54.0101C33.0989 54.3468 32.9447 54.9047 32.8513 55.345C32.8521 55.3447 32.8529 55.3447 32.8537 55.3444C32.6623 56.2429 32.5559 57.1753 32.542 58.1352C34.068 58.3256 35.3303 57.9478 35.5445 56.4191Z" fill="#E8C842"/>
<path opacity="0.6" d="M35.4047 0.0340808L35.6007 0.351963L35.9421 0.503323L35.6242 0.699323L35.4728 1.04073L35.2768 0.722843L34.9354 0.571483L35.2533 0.375483L35.4047 0.0340808Z" fill="#F4A32C"/>
<path opacity="0.8" d="M52.2919 5.04015L52.6626 5.35388L53.1457 5.40305L52.832 5.77371L52.7828 6.25683L52.4122 5.9431L51.929 5.89393L52.2428 5.52326L52.2919 5.04015Z" fill="#F4A32C"/>
<path opacity="0.6" d="M15.7312 21.8811L15.8283 22.2555L16.1201 22.5094L15.7457 22.6065L15.4918 22.8982L15.3947 22.5239L15.103 22.27L15.4773 22.1729L15.7312 21.8811Z" fill="#F4A32C"/>
<path opacity="0.3" d="M59.065 31.1991L58.8368 31.3922L58.5394 31.4225L58.7325 31.6507L58.7628 31.948L58.991 31.7549L59.2884 31.7247L59.0952 31.4965L59.065 31.1991Z" fill="#F4A32C"/>
<path opacity="0.3" d="M29.6468 21.2451L29.5826 21.4659L29.4048 21.6117L29.6256 21.6759L29.7715 21.8537L29.8357 21.6329L30.0135 21.4871L29.7927 21.4229L29.6468 21.2451Z" fill="#F4A32C"/>
<path opacity="0.3" d="M23.9554 6.51702L23.8912 6.73784L23.7134 6.88366L23.9342 6.94787L24.0801 7.12568L24.1443 6.90486L24.3221 6.75904L24.1013 6.69484L23.9554 6.51702Z" fill="#F4A32C"/>
</svg>
