<svg width="30" height="27" viewBox="0 0 30 27" fill="none" xmlns="http://www.w3.org/2000/svg">
<path fill-rule="evenodd" clip-rule="evenodd" d="M5.71175 0.364746C-0.090858 4.85862 -1.77333 13.0759 2.06329 19.5543C5.52906 25.4065 12.404 27.9915 18.6616 26.2782C18.5223 26.0888 18.386 25.8992 18.2527 25.7107C16.9414 23.8558 15.6413 21.6713 14.4772 19.5609C12.1449 15.3325 10.234 11.1726 9.71494 10.0252L8.93352 8.29758C8.45375 7.99747 7.91979 7.61565 7.43513 7.16527C7.02564 6.78473 6.51337 6.22942 6.14376 5.50294C5.75736 4.74345 5.44864 3.6215 5.82217 2.36075L5.83838 2.30602L5.89821 2.1041C6.04319 1.52073 5.97735 0.904586 5.71175 0.364746ZM23.4755 23.9582C23.0979 24.2332 22.7039 24.4927 22.2939 24.7356C22.0902 24.8562 21.8848 24.9714 21.6779 25.0811C20.5913 23.6945 19.4648 21.949 18.3874 20.1137C17.2751 18.2189 16.2152 16.2283 15.306 14.4382C14.0312 11.9282 13.0525 9.81223 12.6409 8.90701L12.6061 8.83052L12.5636 8.73664L12.5923 8.72106C13.8371 9.56828 15.2119 10.1905 16.6504 10.5706C17.0818 11.2853 17.5578 12.087 18.055 12.9463C19.0603 14.6839 20.152 16.6566 21.1361 18.6201C22.0666 20.4765 22.901 22.3247 23.4755 23.9582ZM25.9569 21.674C29.2654 17.8371 30.4006 12.4962 28.8618 7.60732C28.2197 8.18642 27.5108 8.7106 26.7381 9.1682C24.7866 10.3239 22.6583 10.9187 20.5406 11.0006C21.2665 12.2466 22.0454 13.6256 22.8054 15.0476C23.9414 17.1732 25.0658 19.451 25.9096 21.5555C25.9254 21.5949 25.9412 21.6344 25.9569 21.674Z" fill="#FAFAFA"/>
<path fill-rule="evenodd" clip-rule="evenodd" d="M5.71175 0.364746C-0.090858 4.85862 -1.77333 13.0759 2.06329 19.5543C5.52906 25.4065 12.404 27.9915 18.6616 26.2782C18.5223 26.0888 18.386 25.8992 18.2527 25.7107C16.9414 23.8558 15.6413 21.6713 14.4772 19.5609C12.1449 15.3325 10.234 11.1726 9.71494 10.0252L8.93352 8.29758C8.45375 7.99747 7.91979 7.61565 7.43513 7.16527C7.02564 6.78473 6.51337 6.22942 6.14376 5.50294C5.75736 4.74345 5.44864 3.6215 5.82217 2.36075L5.83838 2.30602L5.89821 2.1041C6.04319 1.52073 5.97735 0.904586 5.71175 0.364746ZM23.4755 23.9582C23.0979 24.2332 22.7039 24.4927 22.2939 24.7356C22.0902 24.8562 21.8848 24.9714 21.6779 25.0811C20.5913 23.6945 19.4648 21.949 18.3874 20.1137C17.2751 18.2189 16.2152 16.2283 15.306 14.4382C14.0312 11.9282 13.0525 9.81223 12.6409 8.90701L12.6061 8.83052L12.5636 8.73664L12.5923 8.72106C13.8371 9.56828 15.2119 10.1905 16.6504 10.5706C17.0818 11.2853 17.5578 12.087 18.055 12.9463C19.0603 14.6839 20.152 16.6566 21.1361 18.6201C22.0666 20.4765 22.901 22.3247 23.4755 23.9582ZM25.9569 21.674C29.2654 17.8371 30.4006 12.4962 28.8618 7.60732C28.2197 8.18642 27.5108 8.7106 26.7381 9.1682C24.7866 10.3239 22.6583 10.9187 20.5406 11.0006C21.2665 12.2466 22.0454 13.6256 22.8054 15.0476C23.9414 17.1732 25.0658 19.451 25.9096 21.5555C25.9254 21.5949 25.9412 21.6344 25.9569 21.674Z" fill="url(#paint0_radial_2238_2599)"/>
<defs>
<radialGradient id="paint0_radial_2238_2599" cx="0" cy="0" r="1" gradientUnits="userSpaceOnUse" gradientTransform="translate(6.20896 1.64344) rotate(58.5038) scale(31.4963 34.862)">
<stop offset="0.229242" stop-color="#F29078"/>
<stop offset="1" stop-color="#EB945B"/>
</radialGradient>
</defs>
</svg>
