<svg width="14" height="14" viewBox="0 0 14 14" fill="none" xmlns="http://www.w3.org/2000/svg">
<path fill-rule="evenodd" clip-rule="evenodd" d="M13.4016 7.0001C13.4016 8.69748 12.7273 10.3253 11.527 11.5256C10.3268 12.7258 8.69895 13.4001 7.00156 13.4001C5.30418 13.4001 3.67631 12.7258 2.47608 11.5256C1.27585 10.3253 0.601563 8.69748 0.601562 7.0001C0.601563 5.30271 1.27585 3.67485 2.47608 2.47461C3.67631 1.27438 5.30418 0.600098 7.00156 0.600098C8.69895 0.600098 10.3268 1.27438 11.527 2.47461C12.7273 3.67485 13.4016 5.30271 13.4016 7.0001ZM7.80156 3.8001C7.80156 4.01227 7.71728 4.21575 7.56725 4.36578C7.41722 4.51581 7.21374 4.6001 7.00156 4.6001C6.78939 4.6001 6.58591 4.51581 6.43588 4.36578C6.28585 4.21575 6.20156 4.01227 6.20156 3.8001C6.20156 3.58792 6.28585 3.38444 6.43588 3.23441C6.58591 3.08438 6.78939 3.0001 7.00156 3.0001C7.21374 3.0001 7.41722 3.08438 7.56725 3.23441C7.71728 3.38444 7.80156 3.58792 7.80156 3.8001ZM6.20156 6.2001C5.98939 6.2001 5.78591 6.28438 5.63588 6.43441C5.48585 6.58444 5.40156 6.78792 5.40156 7.0001C5.40156 7.21227 5.48585 7.41575 5.63588 7.56578C5.78591 7.71581 5.98939 7.8001 6.20156 7.8001V10.2001C6.20156 10.4123 6.28585 10.6158 6.43588 10.7658C6.58591 10.9158 6.78939 11.0001 7.00156 11.0001H7.80156C8.01374 11.0001 8.21722 10.9158 8.36725 10.7658C8.51728 10.6158 8.60156 10.4123 8.60156 10.2001C8.60156 9.98792 8.51728 9.78444 8.36725 9.63441C8.21722 9.48438 8.01374 9.4001 7.80156 9.4001V7.0001C7.80156 6.78792 7.71728 6.58444 7.56725 6.43441C7.41722 6.28438 7.21374 6.2001 7.00156 6.2001H6.20156Z" fill="#E4757F"/>
</svg>
