<svg width="16" height="16" viewBox="0 0 16 16" fill="none" xmlns="http://www.w3.org/2000/svg">
<path fill-rule="evenodd" clip-rule="evenodd" d="M8.00078 15.1998C9.91034 15.1998 11.7417 14.4412 13.092 13.091C14.4422 11.7407 15.2008 9.90936 15.2008 7.9998C15.2008 6.09025 14.4422 4.2589 13.092 2.90864C11.7417 1.55837 9.91034 0.799805 8.00078 0.799805C6.09122 0.799805 4.25987 1.55837 2.90961 2.90864C1.55935 4.2589 0.800781 6.09025 0.800781 7.9998C0.800781 9.90936 1.55935 11.7407 2.90961 13.091C4.25987 14.4412 6.09122 15.1998 8.00078 15.1998ZM11.3371 6.8361C11.501 6.66636 11.5917 6.43902 11.5897 6.20304C11.5876 5.96707 11.493 5.74134 11.3261 5.57447C11.1593 5.4076 10.9335 5.31295 10.6975 5.3109C10.4616 5.30885 10.2342 5.39956 10.0645 5.5635L7.10078 8.5272L5.93708 7.3635C5.76734 7.19956 5.54 7.10885 5.30402 7.1109C5.06804 7.11295 4.84231 7.2076 4.67544 7.37447C4.50858 7.54134 4.41392 7.76707 4.41187 8.00304C4.40982 8.23902 4.50054 8.46636 4.66448 8.6361L6.46448 10.4361C6.63326 10.6048 6.86213 10.6996 7.10078 10.6996C7.33943 10.6996 7.56831 10.6048 7.73708 10.4361L11.3371 6.8361Z" fill="#93E396"/>
</svg>
