<svg width="20" height="20" viewBox="0 0 20 20" fill="none" xmlns="http://www.w3.org/2000/svg">
<path fill-rule="evenodd" clip-rule="evenodd" d="M12.9107 4.96793V4.63635C12.9107 4.51514 12.8198 4.39392 12.6683 4.39392H12.335C11.335 4.39392 10.4562 4.90908 9.94105 5.69695V4.72726L10.0926 4.57574C11.2138 3.48483 11.2138 1.66665 10.0926 0.575743L9.85014 0.333319C9.75923 0.242409 9.60772 0.242409 9.51681 0.333319L9.60772 0.606046C8.48651 1.72726 8.48651 3.51514 9.60772 4.60605L9.75923 4.75756V5.75756C9.24408 4.96968 8.36529 4.45453 7.36529 4.45453H7.03196C6.91075 4.45453 6.78954 4.54544 6.78954 4.69695V5.03029C6.78954 6.60604 8.06226 7.87877 9.63802 7.87877H9.72893V8.14975L9.97135 7.90733V7.81817H10.0605L12.9107 4.96793ZM12.7634 9.35794L11.0869 11.0344C11.8614 10.7468 12.4758 10.1325 12.7634 9.35794ZM10.0017 12.1197L9.69863 12.4227V12.5454C9.68248 12.5207 9.66599 12.4963 9.64914 12.4722L7.958 14.1633C8.4175 14.4808 8.97534 14.6666 9.57742 14.6666H9.66832V16.7879C7.96265 16.8133 6.25698 17.074 4.5513 17.57L3.8829 18.2384C8.98908 16.4366 14.1669 16.9228 19.3653 19.697H19.4865C19.5774 19.697 19.638 19.6666 19.6986 19.5757C19.7592 19.4545 19.7289 19.3333 19.6077 19.2727C18.6683 18.7576 17.7289 18.3333 16.7895 18V16.5151H16.8804C18.4562 16.5151 19.7289 15.2424 19.7289 13.6666V13.3333C19.7289 13.2121 19.638 13.0909 19.4865 13.0909H19.1532C18.1532 13.0909 17.2744 13.606 16.7592 14.3939V13.1212H16.8501C18.4259 13.1212 19.6986 11.8485 19.6986 10.2727V9.99998C19.6986 9.87877 19.6077 9.75756 19.4562 9.75756H19.1229C18.1229 9.75756 17.2441 10.2727 16.7289 11.0606V9.78786H16.8501C18.4259 9.78786 19.6986 8.51513 19.6986 6.93938V6.60604C19.6986 6.48483 19.6077 6.36362 19.4562 6.36362H19.1229C18.1229 6.36362 17.2441 6.87877 16.7289 7.66665V6.69695L16.8804 6.54544C17.4775 5.96449 17.7566 5.1773 17.7178 4.40353L15.8391 6.28222C15.9082 6.37335 15.9827 6.4612 16.0623 6.54544L16.2138 6.69695V7.66665C15.9834 7.31435 15.6804 7.01659 15.3263 6.79502L13.6625 8.45879C14.1629 9.2749 15.0631 9.81817 16.0926 9.81817H16.1835V11.0909C15.6683 10.303 14.7895 9.78786 13.7895 9.78786H13.4562C13.335 9.78786 13.2138 9.87877 13.2138 10.0303V10.303C13.2138 11.8788 14.4865 13.1515 16.0623 13.1515H16.1532V14.4242C15.638 13.6363 14.7592 13.1212 13.7592 13.1212H13.4259C13.3047 13.1212 13.1835 13.2121 13.1835 13.3636V13.697C13.1835 15.2727 14.4562 16.5454 16.032 16.5454H16.1229V17.8485C14.0926 17.1212 12.0623 16.7576 10.032 16.7273V14.606H10.1229C11.6986 14.606 12.9714 13.3333 12.9714 11.7576V11.4242C12.9714 11.303 12.8804 11.1818 12.7289 11.1818H12.3956C11.3956 11.1818 10.5168 11.697 10.0017 12.4848V12.1197ZM1.71891 16.1598L3.54711 14.3316V13.1818H3.63802C4.17176 13.1818 4.67074 13.0358 5.09726 12.7814L6.08612 11.7926C6.34048 11.366 6.48651 10.8671 6.48651 10.3333V9.99998C6.48651 9.87877 6.3956 9.75756 6.24408 9.75756H5.91075C4.91075 9.75756 4.03196 10.2727 3.51681 11.0606V9.78786H3.60772C5.18348 9.78786 6.4562 8.51513 6.4562 6.93938V6.60604C6.4562 6.48483 6.36529 6.36362 6.21378 6.36362H5.88045C4.88045 6.36362 4.00166 6.87877 3.48651 7.66665V6.69695L3.63802 6.54544C4.75923 5.45453 4.75923 3.63635 3.63802 2.54544V2.30302C3.54711 2.21211 3.3956 2.21211 3.30469 2.30302L3.06226 2.54544C2.51681 3.09089 2.24408 3.78786 2.24408 4.54544C2.24408 5.30301 2.54711 5.99998 3.06226 6.54544L3.21378 6.69695V7.66665C2.69863 6.87877 1.81984 6.36362 0.819839 6.36362H0.547112C0.4259 6.36362 0.304688 6.45453 0.304688 6.60604V6.96968C0.304688 8.54544 1.57741 9.81817 3.15317 9.81817H3.24408V11.0909C2.72893 10.303 1.85014 9.78786 0.850142 9.78786H0.547112C0.395597 9.75756 0.304688 9.84847 0.304688 9.99998V10.303C0.304688 11.8788 1.57741 13.1515 3.15317 13.1515H3.24408V14.4242C2.72893 13.6363 1.85014 13.1212 0.850142 13.1212H0.547112C0.4259 13.1212 0.304688 13.2121 0.304688 13.3636V13.697C0.304688 14.7494 0.872385 15.6666 1.71891 16.1598ZM7.51739 10.3613L9.2704 8.60828C8.75991 8.13532 8.0812 7.84847 7.33499 7.84847H7.00166C6.88045 7.84847 6.75923 7.93938 6.75923 8.09089V8.42423C6.75923 9.17303 7.04664 9.8534 7.51739 10.3613Z" fill="#020210"/>
</svg>
