<svg width="16" height="16" viewBox="0 0 16 16" fill="none" xmlns="http://www.w3.org/2000/svg">
<path d="M7.98541 0.492606C7.79057 0.498411 7.60563 0.579846 7.46979 0.719656L7.06403 1.12542L4.12555 4.06389L3.71979 4.46966C3.57604 4.60719 3.49282 4.79618 3.48842 4.99508C3.48403 5.19397 3.55882 5.38646 3.69635 5.5302C3.83388 5.67395 4.02288 5.75717 4.22177 5.76157C4.42066 5.76596 4.61315 5.69117 4.7569 5.55364C5.25608 6.58933 5.87519 7.51557 6.59967 8.33977L0.71979 14.2197C0.64781 14.2888 0.590343 14.3715 0.550754 14.4631C0.511165 14.5547 0.490251 14.6533 0.489236 14.7531C0.48822 14.8529 0.507125 14.9518 0.544842 15.0442C0.582559 15.1366 0.63833 15.2205 0.708889 15.2911C0.779448 15.3617 0.863376 15.4174 0.955759 15.4552C1.04814 15.4929 1.14712 15.5118 1.2469 15.5108C1.34668 15.5097 1.44526 15.4888 1.53685 15.4492C1.62845 15.4097 1.71123 15.3522 1.78034 15.2802L7.66022 9.40032C8.48456 10.1249 9.41045 10.7453 10.4464 11.2446C10.3172 11.3897 10.2495 11.5794 10.2574 11.7735C10.2653 11.9676 10.3482 12.1511 10.4887 12.2854C10.6292 12.4196 10.8163 12.494 11.0106 12.4931C11.2048 12.4921 11.3912 12.4158 11.5303 12.2802L11.9361 11.8744L12.2803 11.5302L14.8746 8.93596L15.2803 8.5302C15.3887 8.42486 15.4627 8.28923 15.4927 8.14109C15.5227 7.99295 15.5072 7.83921 15.4483 7.70002C15.3894 7.56083 15.2898 7.44268 15.1626 7.36106C15.0354 7.27944 14.8865 7.23815 14.7354 7.24261C14.552 7.24798 14.3769 7.32042 14.2432 7.44622C13.0168 4.90175 11.0983 2.98159 8.55377 1.7553C8.65503 1.64726 8.72204 1.51166 8.74637 1.3656C8.77069 1.21954 8.75124 1.06954 8.69046 0.934515C8.62968 0.799488 8.5303 0.685471 8.40483 0.606831C8.27937 0.528191 8.13343 0.488447 7.98541 0.492606ZM7.40094 2.9096C7.78288 3.0727 8.14319 3.25461 8.49225 3.4472L6.44733 5.49212C6.25475 5.14306 6.07283 4.78274 5.90973 4.40081L7.40094 2.9096ZM9.77545 4.28509C10.5124 4.84225 11.1577 5.48759 11.7149 6.22454L9.22467 8.71477C8.48772 8.15761 7.84238 7.51227 7.28522 6.77532L9.77545 4.28509ZM12.5528 7.50774C12.7454 7.8568 12.9273 8.21711 13.0904 8.59905L11.5992 10.0903C11.2172 9.92716 10.8569 9.74525 10.5079 9.55266L12.5528 7.50774Z" fill="#01CDFD"/>
</svg>
