<svg version="1.2" baseProfile="tiny-ps" xmlns="http://www.w3.org/2000/svg" viewBox="0 0 16 16" width="16" height="16">
	<title>active-hammer-svg</title>
	<style>
		tspan { white-space:pre }
		.shp0 { fill: #000000 } 
	</style>
	<path id="Layer" fill-rule="evenodd" class="shp0" d="M8.4 0.61C8.53 0.69 8.63 0.8 8.69 0.93C8.75 1.07 8.77 1.22 8.75 1.37C8.72 1.51 8.66 1.65 8.55 1.76C11.1 2.98 13.02 4.9 14.24 7.45C14.38 7.32 14.55 7.25 14.74 7.24C14.89 7.24 15.04 7.28 15.16 7.36C15.29 7.44 15.39 7.56 15.45 7.7C15.51 7.84 15.52 7.99 15.49 8.14C15.46 8.29 15.39 8.42 15.28 8.53L14.87 8.94L12.28 11.53L11.53 12.28C11.39 12.42 11.2 12.49 11.01 12.49C10.82 12.49 10.63 12.42 10.49 12.29C10.35 12.15 10.27 11.97 10.26 11.77C10.25 11.58 10.32 11.39 10.45 11.24C9.41 10.75 8.48 10.12 7.66 9.4L1.78 15.28C1.71 15.35 1.63 15.41 1.54 15.45C1.45 15.49 1.35 15.51 1.25 15.51C1.15 15.51 1.05 15.49 0.96 15.46C0.86 15.42 0.78 15.36 0.71 15.29C0.64 15.22 0.58 15.14 0.54 15.04C0.51 14.95 0.49 14.85 0.49 14.75C0.49 14.65 0.51 14.55 0.55 14.46C0.59 14.37 0.65 14.29 0.72 14.22L6.6 8.34C5.88 7.52 5.26 6.59 4.76 5.55C4.61 5.69 4.42 5.77 4.22 5.76C4.02 5.76 3.83 5.67 3.7 5.53C3.56 5.39 3.48 5.19 3.49 5C3.49 4.8 3.58 4.61 3.72 4.47L4.13 4.06L7.06 1.13L7.47 0.72C7.61 0.58 7.79 0.5 7.99 0.49C8.13 0.49 8.28 0.53 8.4 0.61ZM5.91 4.4C6.07 4.78 6.25 5.14 6.45 5.49L8.49 3.45C8.14 3.25 7.78 3.07 7.4 2.91L5.91 4.4ZM7.29 6.78C7.84 7.51 8.49 8.16 9.22 8.71L11.71 6.22C11.16 5.49 10.51 4.84 9.78 4.29L7.29 6.78ZM10.51 9.55C10.86 9.75 11.22 9.93 11.6 10.09L13.09 8.6C12.93 8.22 12.75 7.86 12.55 7.51L10.51 9.55Z" />
</svg>