<svg width="18" height="21" viewBox="0 0 18 21" fill="none" xmlns="http://www.w3.org/2000/svg">
<path d="M9 0.645813C8.60218 0.645813 8.22064 0.803848 7.93934 1.08515C7.65804 1.36646 7.5 1.74799 7.5 2.14581C7.50024 2.24021 7.5094 2.33438 7.52734 2.42706L2.69727 5.64581H2C0.906937 5.64581 0 6.55275 0 7.64581V18.6458C0 19.7389 0.906937 20.6458 2 20.6458H16C17.0931 20.6458 18 19.7389 18 18.6458V7.64581C18 6.55275 17.0931 5.64581 16 5.64581H15.3027L10.4727 2.42706C10.4906 2.33438 10.4998 2.24021 10.5 2.14581C10.5 1.74799 10.342 1.36646 10.0607 1.08515C9.77936 0.803848 9.39782 0.645813 9 0.645813ZM9 3.84698L11.6973 5.64581H6.30273L9 3.84698ZM2 7.64581H16V18.6458H2V7.64581ZM4 9.64581V16.6458H5H14V9.64581H4ZM6 11.6458H12V14.6458H6V11.6458Z" fill="#1B1B1B"/>
</svg>
