<svg width="19" height="19" viewBox="0 0 19 19" fill="none" xmlns="http://www.w3.org/2000/svg">
<path d="M10.3108 0.993211C10.116 0.998887 9.93108 1.08014 9.79516 1.21977L9.52465 1.4893C9.46044 1.5361 9.40407 1.59279 9.35766 1.65727L5.98949 5.02446C5.92536 5.07096 5.869 5.12732 5.8225 5.19145L5.55199 5.46196C5.42428 5.58674 5.34526 5.75298 5.32915 5.93081C5.31304 6.10863 5.3609 6.28637 5.46411 6.43206C5.56732 6.57776 5.71912 6.68186 5.89222 6.72565C6.06532 6.76944 6.24836 6.75004 6.40844 6.67095L7.58324 7.84575C7.63236 7.91465 7.69279 7.97474 7.76195 8.02348L8.57348 8.83598C5.3838 11.5498 2.40975 14.1228 1.11547 15.417C0.302005 16.2305 0.302005 17.5723 1.11547 18.3858C1.92894 19.1993 3.27075 19.1993 4.08422 18.3858C5.37516 17.0948 7.95699 14.1045 10.6623 10.9249L11.4729 11.7354C11.5219 11.8046 11.5824 11.8651 11.6516 11.9141L12.8293 13.0918C12.7502 13.2519 12.7308 13.435 12.7746 13.6081C12.8184 13.7812 12.9225 13.933 13.0682 14.0362C13.2139 14.1394 13.3917 14.1872 13.5695 14.1711C13.7473 14.155 13.9135 14.076 14.0383 13.9483L14.3118 13.6749C14.3738 13.6294 14.4285 13.5748 14.4739 13.5127L17.8411 10.1446C17.9073 10.097 17.9654 10.039 18.0129 9.9727L18.2805 9.70512C18.4078 9.58033 18.4864 9.41429 18.5024 9.23676C18.5184 9.05923 18.4706 8.88182 18.3676 8.73632C18.2647 8.59082 18.1133 8.48673 17.9405 8.44272C17.7678 8.39871 17.5851 8.41765 17.425 8.49614L16.2454 7.31645C16.198 7.25062 16.1403 7.19291 16.0745 7.14555L12.3567 3.42778C12.3091 3.36153 12.2511 3.30347 12.1848 3.25591L11.0041 2.07524C11.0614 1.9593 11.0878 1.83051 11.0806 1.70139C11.0734 1.57227 11.033 1.44719 10.9632 1.33831C10.8934 1.22942 10.7967 1.14043 10.6824 1.07996C10.5681 1.01949 10.4401 0.98961 10.3108 0.993211ZM9.97192 3.16411L10.6789 3.87114L8.20434 6.34575L7.49731 5.63872L9.97192 3.16411ZM11.7395 4.93169L14.5686 7.76079L12.094 10.2354L11.2405 9.38188C11.1942 9.31817 11.1382 9.26215 11.0745 9.21587L9.26488 7.4063L11.7395 4.93169ZM15.6291 8.82134L16.3362 9.52837L13.8616 12.003L13.1545 11.2959L15.6291 8.82134ZM9.33129 10.167C6.72216 13.2277 4.17691 16.171 3.02367 17.3243C2.78314 17.5648 2.41655 17.5648 2.17602 17.3243C1.93548 17.0837 1.93548 16.7181 2.17602 16.4776C3.33232 15.3213 6.26105 12.7841 9.33129 10.167ZM9.75024 17.5C9.65085 17.4986 9.55218 17.517 9.45995 17.5541C9.36773 17.5911 9.28379 17.6461 9.21301 17.7159C9.14223 17.7857 9.08603 17.8689 9.04767 17.9606C9.00931 18.0522 8.98955 18.1507 8.98955 18.25C8.98955 18.3494 9.00931 18.4478 9.04767 18.5395C9.08603 18.6312 9.14223 18.7144 9.21301 18.7842C9.28379 18.854 9.36773 18.909 9.45995 18.946C9.55218 18.9831 9.65085 19.0015 9.75024 19H17.7502C17.8496 19.0015 17.9483 18.9831 18.0405 18.946C18.1327 18.909 18.2167 18.854 18.2875 18.7842C18.3582 18.7144 18.4144 18.6312 18.4528 18.5395C18.4912 18.4478 18.5109 18.3494 18.5109 18.25C18.5109 18.1507 18.4912 18.0522 18.4528 17.9606C18.4144 17.8689 18.3582 17.7857 18.2875 17.7159C18.2167 17.6461 18.1327 17.5911 18.0405 17.5541C17.9483 17.517 17.8496 17.4986 17.7502 17.5H9.75024Z" fill="#1B1B1B"/>
</svg>
