<svg width="21" height="20" viewBox="0 0 21 20" fill="none" xmlns="http://www.w3.org/2000/svg">
<path d="M10.5 0C4.986 0 0.5 4.486 0.5 10C0.5 15.514 4.986 20 10.5 20C16.014 20 20.5 15.514 20.5 10C20.5 8.3955 20.111 6.88359 19.4365 5.53809L18.3145 6.66016C18.7545 7.68566 19 8.8145 19 10C19 14.687 15.187 18.5 10.5 18.5C5.813 18.5 2 14.687 2 10C2 5.313 5.813 1.5 10.5 1.5C12.723 1.5 14.7428 2.3646 16.2588 3.7666L17.3193 2.70605C15.5308 1.03255 13.1365 0 10.5 0ZM18.2354 3.49316C18.0406 3.49884 17.8556 3.5801 17.7197 3.71973L9.25 12.1895L7.28027 10.2197C7.21116 10.1477 7.12839 10.0903 7.03679 10.0507C6.9452 10.0111 6.84662 9.99019 6.74684 9.98918C6.64706 9.98817 6.54808 10.0071 6.4557 10.0448C6.36332 10.0825 6.27939 10.1383 6.20883 10.2088C6.13828 10.2794 6.08251 10.3633 6.04479 10.4557C6.00707 10.5481 5.98817 10.6471 5.98918 10.7468C5.9902 10.8466 6.01111 10.9452 6.0507 11.0368C6.09028 11.1284 6.14775 11.2112 6.21973 11.2803L8.71973 13.7803C8.86038 13.9209 9.05112 13.9999 9.25 13.9999C9.44888 13.9999 9.63962 13.9209 9.78027 13.7803L18.7803 4.78027C18.8885 4.6749 18.9623 4.53931 18.9922 4.39126C19.0221 4.2432 19.0066 4.08958 18.9477 3.9505C18.8888 3.81141 18.7893 3.69335 18.6622 3.61175C18.5351 3.53015 18.3863 3.48882 18.2354 3.49316V3.49316Z" fill="white"/>
</svg>
