<svg version="1.2" baseProfile="tiny-ps" xmlns="http://www.w3.org/2000/svg" viewBox="0 0 21 20" width="21" height="20">
	<title>check-icon-active-svg</title>
	<style>
		tspan { white-space:pre }
		.shp0 { opacity: 0.502;fill: #ffffff } 
	</style>
	<path id="Layer" fill-rule="evenodd" class="shp0" d="M17.32 2.71L16.26 3.77C14.74 2.36 12.72 1.5 10.5 1.5C5.81 1.5 2 5.31 2 10C2 14.69 5.81 18.5 10.5 18.5C15.19 18.5 19 14.69 19 10C19 8.81 18.75 7.69 18.31 6.66L19.44 5.54C20.11 6.88 20.5 8.4 20.5 10C20.5 15.51 16.01 20 10.5 20C4.99 20 0.5 15.51 0.5 10C0.5 4.49 4.99 0 10.5 0C13.14 0 15.53 1.03 17.32 2.71ZM18.24 3.49C18.39 3.49 18.54 3.53 18.66 3.61C18.79 3.69 18.89 3.81 18.95 3.95C19.01 4.09 19.02 4.24 18.99 4.39C18.96 4.54 18.89 4.67 18.78 4.78L9.78 13.78C9.64 13.92 9.45 14 9.25 14C9.05 14 8.86 13.92 8.72 13.78L6.22 11.28C6.15 11.21 6.09 11.13 6.05 11.04C6.01 10.95 5.99 10.85 5.99 10.75C5.99 10.65 6.01 10.55 6.04 10.46C6.08 10.36 6.14 10.28 6.21 10.21C6.28 10.14 6.36 10.08 6.46 10.04C6.55 10.01 6.65 9.99 6.75 9.99C6.85 9.99 6.95 10.01 7.04 10.05C7.13 10.09 7.21 10.15 7.28 10.22L9.25 12.19L17.72 3.72C17.86 3.58 18.04 3.5 18.24 3.49Z" />
</svg>