<svg width="50" height="50" viewBox="0 0 50 50" fill="none" xmlns="http://www.w3.org/2000/svg">
<path d="M3 5C1.34315 5 0 6.34315 0 8V29.5859L11.1562 18.4297L15.4609 24.8906L20.3281 23.9141L24.4141 28H30.3203L37.3203 33H50V8C50 6.34315 48.6569 5 47 5H3ZM37.5 14C39.4336 14 41 15.5664 41 17.5C41 19.4336 39.4336 21 37.5 21C35.5664 21 34 19.4336 34 17.5C34 15.5664 35.5664 14 37.5 14ZM10.8438 21.5703L0 32.4141V42C0 43.6569 1.34315 45 3 45H47C48.6569 45 50 43.6569 50 42V35H36.6797L29.6797 30H23.5859L19.6719 26.0859L14.5391 27.1094L10.8438 21.5703Z" fill="#01CDFD"/>
</svg>
