<svg width="50" height="50" viewBox="0 0 50 50" fill="none" xmlns="http://www.w3.org/2000/svg">
<path d="M16 0C7.178 0 0 7.178 0 16C0 24.822 7.178 32 16 32C16.041 32 16.0762 31.9961 16.1172 31.9961C17.0412 23.6571 23.6571 17.0412 31.9961 16.1172C31.9961 16.0762 32 16.041 32 16C32 7.178 24.822 0 16 0ZM39.293 0.292969L33.5859 6L39.293 11.707L40.707 10.293L37.4141 7H42C44.7545 7 47 9.24545 47 12V18H49V12C49 8.15455 45.8455 5 42 5H37.4141L40.707 1.70703L39.293 0.292969ZM16 4C16.552 4 17 4.448 17 5V6.73438C18.108 6.87138 19.0402 7.341 19.6992 8C20.3992 8.7 20.8992 9.79961 21.1992 11.0996H19.3008C19.0158 9.67461 18.273 8.88769 17 8.55469V14.0625L18.0996 14.4004C18.3996 14.5004 18.6996 14.6008 19.0996 14.8008C19.4996 15.0008 19.9008 15.1996 20.3008 15.5996C20.7008 15.8996 20.9992 16.3008 21.1992 16.8008C21.4992 17.3008 21.5996 17.8996 21.5996 18.5996C21.5996 19.2996 21.4992 20 21.1992 20.5C20.9992 21.1 20.5992 21.6 20.1992 22C19.7992 22.4 19.2992 22.7 18.6992 23C18.1792 23.173 17.651 23.3398 17 23.3828V25C17 25.552 16.552 26 16 26C15.448 26 15 25.552 15 25V23.3223C13.739 23.1333 12.706 22.5958 12 21.8008C11.1 20.9008 10.6 19.6996 10.5 18.0996H12.4004C12.3004 19.1996 12.6992 20 13.1992 20.5C13.7052 21.006 14.291 21.2932 15 21.4922V15.5957C14.369 15.4297 13.8144 15.2656 13.4004 15.0996C12.8004 14.8996 12.4 14.5988 12 14.2988C11.6 13.9988 11.2992 13.5996 11.1992 13.0996C10.9992 12.5996 10.9004 12.0984 10.9004 11.3984C10.9004 10.6984 11.0008 10.0996 11.3008 9.59961C11.5008 8.99961 11.9008 8.59961 12.3008 8.09961C12.7008 7.69961 13.2008 7.39961 13.8008 7.09961C14.2008 6.96661 14.6 6.83767 15 6.76367V5C15 4.448 15.448 4 16 4ZM15 8.63477C14.506 8.70577 13.9916 8.90878 13.5996 9.30078C13.0996 9.70078 12.9004 10.3992 12.9004 11.1992C12.9004 11.5992 12.9996 11.8992 13.0996 12.1992C13.1996 12.4992 13.3996 12.7004 13.5996 12.9004C13.7996 13.1004 14.1004 13.2004 14.4004 13.4004C14.5804 13.4604 14.791 13.5516 15 13.6406V8.63477ZM17 16.209V21.623C17.293 21.548 17.5778 21.4744 17.8008 21.4004C18.1008 21.3004 18.4992 21.1004 18.6992 20.9004C18.9992 20.7004 19.2008 20.4 19.3008 20C19.4008 19.7 19.5 19.2008 19.5 18.8008C19.5 18.4008 19.4008 17.9992 19.3008 17.6992C19.2008 17.3992 18.9992 17.2 18.6992 17C18.3992 16.8 18.1008 16.6 17.8008 16.5C17.5098 16.427 17.262 16.311 17 16.209ZM34 18C25.178 18 18 25.178 18 34C18 42.822 25.178 50 34 50C42.822 50 50 42.822 50 34C50 25.178 42.822 18 34 18ZM33 23.8574V35.6758L27.4844 34.0996L33 23.8574ZM35 23.8574L40.5156 34.0996L35 35.6758V23.8574ZM1 32V38C1 41.8455 4.15455 45 8 45H11.5859L8.29297 48.293L9.70703 49.707L15.4141 44L9.70703 38.293L8.29297 39.707L11.5859 43H8C5.24545 43 3 40.7545 3 38V32H1ZM27.8086 36.2715L33 37.7539V38.043V44.4277L27.8086 36.2715ZM40.1914 36.2715L35 44.4277V38.043V37.7539L40.1914 36.2715Z" fill="#01CDFD"/>
</svg>
