<svg width="12" height="13" viewBox="0 0 12 13" fill="none" xmlns="http://www.w3.org/2000/svg">
<mask id="path-1-inside-1_1625_797" fill="white">
<path d="M5.25 5V5.75H6V5H5.25ZM5.25 6.5V8.75H6V6.5H5.25Z"/>
</mask>
<path d="M5.25 5V5.75H6V5H5.25ZM5.25 6.5V8.75H6V6.5H5.25Z" fill="white"/>
<path d="M5.25 5V4H4.25V5H5.25ZM5.25 5.75H4.25V6.75H5.25V5.75ZM6 5.75V6.75H7V5.75H6ZM6 5H7V4H6V5ZM5.25 6.5V5.5H4.25V6.5H5.25ZM5.25 8.75H4.25V9.75H5.25V8.75ZM6 8.75V9.75H7V8.75H6ZM6 6.5H7V5.5H6V6.5ZM4.25 5V5.75H6.25V5H4.25ZM5.25 6.75H6V4.75H5.25V6.75ZM7 5.75V5H5V5.75H7ZM6 4H5.25V6H6V4ZM4.25 6.5V8.75H6.25V6.5H4.25ZM5.25 9.75H6V7.75H5.25V9.75ZM7 8.75V6.5H5V8.75H7ZM6 5.5H5.25V7.5H6V5.5Z" fill="#9BB0CF" mask="url(#path-1-inside-1_1625_797)"/>
<circle cx="5.625" cy="6.875" r="3.625" stroke="#9BB0CF"/>
</svg>
