<svg width="56" height="56" viewBox="0 0 56 56" fill="none" xmlns="http://www.w3.org/2000/svg">
<path d="M6.49674 5.60001C4.76746 5.60001 3.35986 7.0076 3.35986 8.73688V49.28C3.35986 49.8994 3.8605 50.4 4.47986 50.4H51.5199C52.1392 50.4 52.6399 49.8994 52.6399 49.28V8.73688C52.6399 7.0076 51.2323 5.60001 49.503 5.60001H6.49674ZM5.59986 14.56H50.3999V48.16H5.59986V14.56ZM12.3199 21.28V26.88H10.0799C9.4605 26.88 8.95986 27.3806 8.95986 28V31.36C8.95986 31.9794 9.4605 32.48 10.0799 32.48H16.7999C17.4192 32.48 17.9199 31.9794 17.9199 31.36V28C17.9199 27.3806 17.4192 26.88 16.7999 26.88H14.5599V21.28H12.3199ZM26.8799 21.28V31.36H24.6399C24.0205 31.36 23.5199 31.8606 23.5199 32.48V35.84C23.5199 36.4594 24.0205 36.96 24.6399 36.96H31.3599C31.9792 36.96 32.4799 36.4594 32.4799 35.84V32.48C32.4799 31.8606 31.9792 31.36 31.3599 31.36H29.1199V21.28H26.8799ZM41.4399 21.28V28H39.1999C38.5805 28 38.0799 28.5006 38.0799 29.12V32.48C38.0799 33.0994 38.5805 33.6 39.1999 33.6H45.9199C46.5392 33.6 47.0399 33.0994 47.0399 32.48V29.12C47.0399 28.5006 46.5392 28 45.9199 28H43.6799V21.28H41.4399ZM12.3199 34.72V42.56H14.5599V34.72H12.3199ZM41.4399 35.84V42.56H43.6799V35.84H41.4399ZM26.8799 39.2V42.56H29.1199V39.2H26.8799Z" fill="#01CDFD"/>
</svg>
