<svg width="49" height="31" viewBox="0 0 49 31" fill="none" xmlns="http://www.w3.org/2000/svg">
<mask id="mask0_864_1406" style="mask-type:alpha" maskUnits="userSpaceOnUse" x="18" y="0" width="31" height="31">
<path fill-rule="evenodd" clip-rule="evenodd" d="M48.809 15.5515C48.809 23.8933 42.0467 30.6556 33.7049 30.6556C29.3144 30.6556 25.3613 28.7822 22.6016 25.7912L18.3208 21.5022C18.3208 21.5022 19.4851 18.9498 19.4851 15.5515C19.4851 12.1532 18.3208 9.58943 18.3208 9.58943H19.8231C22.1355 4.21249 27.4805 0.447403 33.7049 0.447403C42.0467 0.447403 48.809 7.20973 48.809 15.5515ZM40.0721 15.5515C40.0721 19.068 37.2214 21.9186 33.7049 21.9186C30.1885 21.9186 27.3378 19.068 27.3378 15.5515C27.3378 12.035 30.1885 9.18436 33.7049 9.18436C37.2214 9.18436 40.0721 12.035 40.0721 15.5515Z" fill="url(#paint0_linear_864_1406)"/>
</mask>
<g mask="url(#mask0_864_1406)">
<path fill-rule="evenodd" clip-rule="evenodd" d="M48.8088 15.5515C48.8088 23.8933 42.0465 30.6556 33.7047 30.6556C29.3141 30.6556 25.3611 28.7822 22.6013 25.7912L18.3206 21.5022C18.3206 21.5022 19.4848 18.9498 19.4848 15.5515C19.4848 12.1532 18.3206 9.58943 18.3206 9.58943H19.8229C22.1353 4.21249 27.4803 0.447403 33.7047 0.447403C42.0465 0.447403 48.8088 7.20973 48.8088 15.5515ZM40.0718 15.5515C40.0718 19.068 37.2212 21.9186 33.7047 21.9186C30.1882 21.9186 27.3376 19.068 27.3376 15.5515C27.3376 12.035 30.1882 9.18436 33.7047 9.18436C37.2212 9.18436 40.0718 12.035 40.0718 15.5515Z" fill="url(#paint1_linear_864_1406)"/>
<path opacity="0.4" d="M18.3206 15.3625V9.63091L18.3275 9.63366C19.3841 10.0543 20.2259 10.9578 20.9527 11.738C21.1022 11.8985 21.2468 12.0536 21.3874 12.1984L29.2092 20.0708C29.2575 20.1169 29.325 20.178 29.4038 20.2468C25.0998 17.283 22.7121 16.0765 18.3206 15.3625Z" fill="#1E2337"/>
</g>
<path d="M15.9742 0.447571C7.63245 0.447571 0.870117 7.2099 0.870117 15.5517C0.870117 23.8934 7.63245 30.6557 15.9742 30.6557C19.2867 30.6557 22.3501 29.5894 24.8399 27.7814L18.328 21.4696C17.5999 21.7594 16.8057 21.9188 15.9742 21.9188C12.4577 21.9188 9.60708 19.0681 9.60708 15.5517C9.60708 12.0352 12.4577 9.18453 15.9742 9.18453C16.8057 9.18453 17.5999 9.34389 18.328 9.63373C19.6018 10.1408 20.5634 11.3499 21.3878 12.1984L29.2096 20.0708C29.3849 20.238 29.8106 20.6015 30.1187 20.8176C30.29 20.9378 30.5604 21.0986 30.797 21.22C31.042 21.3457 31.2502 21.43 31.2502 21.43C31.2502 21.43 30.0859 18.9408 30.0859 15.5696C30.0859 12.1984 31.2502 9.70923 31.2502 9.70923L26.3498 4.82889C25.1924 3.673 23.9876 2.64135 22.5104 1.93117C20.5325 0.980304 18.3156 0.447571 15.9742 0.447571Z" fill="url(#paint2_linear_864_1406)"/>
<path opacity="0.3" fill-rule="evenodd" clip-rule="evenodd" d="M18.3196 21.4778C19.1062 23.2253 20.3374 26.3318 20.3374 30.0208C21.9723 29.5283 23.4904 28.7662 24.8399 27.7862L18.328 21.4744C18.3252 21.4755 18.3224 21.4766 18.3196 21.4778Z" fill="#262D47"/>
<defs>
<linearGradient id="paint0_linear_864_1406" x1="43.1533" y1="4.63917" x2="25.1207" y2="28.4" gradientUnits="userSpaceOnUse">
<stop stop-color="#FF52BC"/>
<stop offset="0.516172" stop-color="#C83E93"/>
<stop offset="1" stop-color="#861F5E"/>
</linearGradient>
<linearGradient id="paint1_linear_864_1406" x1="43.1531" y1="4.63917" x2="25.1205" y2="28.4" gradientUnits="userSpaceOnUse">
<stop stop-color="#FF52BC"/>
<stop offset="0.516172" stop-color="#C83E93"/>
<stop offset="1" stop-color="#861F5E"/>
</linearGradient>
<linearGradient id="paint2_linear_864_1406" x1="25.0596" y1="27.5208" x2="4.93649" y2="8.19456" gradientUnits="userSpaceOnUse">
<stop stop-color="#00FFFF"/>
<stop offset="1" stop-color="#01CDFD"/>
</linearGradient>
</defs>
</svg>
