<svg width="20" height="20" viewBox="0 0 20 20" fill="none" xmlns="http://www.w3.org/2000/svg">
<path d="M4 0.5C3.81139 0.500075 3.62973 0.571205 3.49121 0.699219L0.241211 3.69922C0.165187 3.76942 0.104512 3.85459 0.0630002 3.94938C0.0214886 4.04417 3.88426e-05 4.14652 0 4.25V5.75C0 7.16926 0.814043 8.40211 2 9.03906V13.1396C1.13178 13.4525 0.5 14.28 0.5 15.25V19.25C0.50002 19.4489 0.579044 19.6397 0.719692 19.7803C0.86034 19.921 1.05109 20 1.25 20H18.75C18.9489 20 19.1397 19.921 19.2803 19.7803C19.421 19.6397 19.5 19.4489 19.5 19.25V15.25C19.5 14.28 18.8682 13.4525 18 13.1396V8.97559C19.1686 8.33379 20.001 7.15657 20.001 5.75V4.25H19.999C19.9991 4.14659 19.9778 4.04428 19.9365 3.9495C19.8951 3.85472 19.8346 3.76951 19.7588 3.69922L16.5088 0.699219C16.3703 0.571205 16.1886 0.500075 16 0.5H4ZM4.29297 2H15.707L17.332 3.5H2.66797L4.29297 2ZM1.5 5H6.16602V5.75C6.16602 5.75197 6.16601 5.75389 6.16602 5.75586C6.16269 6.99352 5.14055 8 3.83398 8C2.52529 8 1.5 6.99043 1.5 5.75V5ZM7.66699 5H12.334V5.75C12.334 6.99043 11.3087 8 10 8C8.69343 8 7.67032 6.99352 7.66699 5.75586C7.667 5.75389 7.66699 5.75197 7.66699 5.75V5ZM13.834 5H18.501V5.75C18.501 6.99043 17.4757 8 16.167 8C14.8583 8 13.834 6.99043 13.834 5.75V5ZM13.084 7.85352C13.7808 8.82433 14.877 9.5 16.167 9.5C16.2847 9.5 16.3848 9.44393 16.5 9.43359V13H3.5V9.4834C3.61034 9.49287 3.72135 9.5 3.83398 9.5C5.09117 9.5 6.21465 8.89502 6.91602 7.96582C7.61764 8.89529 8.7426 9.5 10 9.5C11.2902 9.5 12.3872 8.82459 13.084 7.85352ZM2.75 14.5H17.25C17.6733 14.5 18 14.8268 18 15.25V18.5H2V15.25C2 14.8268 2.32675 14.5 2.75 14.5Z" fill="#C83E93"/>
</svg>
