<svg width="24" height="24" viewBox="0 0 24 24" fill="none" xmlns="http://www.w3.org/2000/svg">
<path d="M10 5.5C10 5.77617 9.77617 6 9.5 6C9.22383 6 9 5.77617 9 5.5C9 5.22383 9.22383 5 9.5 5C9.77617 5 10 5.22383 10 5.5Z" fill="#C83E93"/>
<path d="M13 5.5C13 5.77617 12.5523 6 12 6C11.4477 6 11 5.77617 11 5.5C11 5.22383 11.4477 5 12 5C12.5523 5 13 5.22383 13 5.5Z" fill="#C83E93"/>
<path d="M15 5.5C15 5.77617 14.7762 6 14.5 6C14.2238 6 14 5.77617 14 5.5C14 5.22383 14.2238 5 14.5 5C14.7762 5 15 5.22383 15 5.5Z" fill="#C83E93"/>
<path d="M17 5.5C17 5.77617 16.7762 6 16.5 6C16.2238 6 16 5.77617 16 5.5C16 5.22383 16.2238 5 16.5 5C16.7762 5 17 5.22383 17 5.5Z" fill="#C83E93"/>
<path d="M19 5.5C19 5.77617 18.7762 6 18.5 6C18.2238 6 18 5.77617 18 5.5C18 5.22383 18.2238 5 18.5 5C18.7762 5 19 5.22383 19 5.5Z" fill="#C83E93"/>
<path d="M20.2422 3H3.75781C2.78857 3 2 3.75703 2 4.6875V19.3125C2 20.243 2.78857 21 3.75781 21H20.2422C21.2114 21 22 20.243 22 19.3125V4.6875C22 3.75703 21.2114 3 20.2422 3ZM20.8281 19.3125C20.8281 19.6226 20.5652 19.875 20.2422 19.875H3.75781C3.43478 19.875 3.17188 19.6226 3.17188 19.3125V4.6875C3.17188 4.37739 3.43478 4.125 3.75781 4.125H20.2422C20.5652 4.125 20.8281 4.37739 20.8281 4.6875V19.3125Z" fill="#C83E93"/>
<path d="M18.4643 7.5H5.53571C5.23982 7.5 5 7.74621 5 8.05V17.95C5 18.2538 5.23982 18.5 5.53571 18.5H18.4643C18.7602 18.5 19 18.2538 19 17.95V8.05C19 7.74621 18.7602 7.5 18.4643 7.5ZM6.07143 11.9H8.25V14.1H6.07143V11.9ZM9.32143 11.9H11.4643V14.1H9.32143V11.9ZM11.4643 10.8H9.32143V8.6H11.4643V10.8ZM12.5357 8.6H14.6786V10.8H12.5357V8.6ZM11.4643 15.2V17.4H9.32143V15.2H11.4643ZM12.5357 15.2H14.6786V17.4H12.5357V15.2ZM12.5357 14.1V11.9H14.6786V14.1H12.5357ZM15.75 11.9H17.9286V14.1H15.75V11.9ZM17.9286 10.8H15.75V8.6H17.9286V10.8ZM8.25 8.6V10.8H6.07143V8.6H8.25ZM6.07143 15.2H8.25V17.4H6.07143V15.2ZM15.75 17.4V15.2H17.9286V17.4H15.75Z" fill="#C83E93"/>
<path d="M5.49451 6H7.50549C7.77863 6 8 5.77617 8 5.5C8 5.22383 7.77863 5 7.50549 5H5.49451C5.22137 5 5 5.22383 5 5.5C5 5.77617 5.22137 6 5.49451 6Z" fill="#C83E93"/>
</svg>
