<svg width="24" height="24" viewBox="0 0 24 24" fill="none" xmlns="http://www.w3.org/2000/svg">
<path d="M7.60102 9.55187C4.16907 9.55187 1.37695 12.344 1.37695 15.7759C1.37695 19.2079 4.16907 22 7.60102 22C11.033 22 13.8251 19.2079 13.8251 15.7759C13.8251 12.344 11.033 9.55187 7.60102 9.55187ZM7.60102 20.3403C5.08426 20.3403 3.0367 18.2927 3.0367 15.7759C3.0367 13.2592 5.08426 11.2116 7.60102 11.2116C10.1178 11.2116 12.1653 13.2592 12.1653 15.7759C12.1653 18.2927 10.1178 20.3403 7.60102 20.3403ZM7.60102 13.2863C6.22824 13.2863 5.11139 14.4032 5.11139 15.7759C5.11139 17.1487 6.22824 18.2656 7.60102 18.2656C8.9738 18.2656 10.0906 17.1487 10.0906 15.7759C10.0906 14.4032 8.9738 13.2863 7.60102 13.2863ZM7.60102 16.6058C7.14343 16.6058 6.77114 16.2335 6.77114 15.7759C6.77114 15.3183 7.14343 14.9461 7.60102 14.9461C8.05861 14.9461 8.4309 15.3183 8.4309 15.7759C8.4309 16.2335 8.05861 16.6058 7.60102 16.6058ZM22.6218 15.7759C22.6218 19.2079 19.8297 22 16.3977 22C15.6921 22 14.9995 21.8827 14.3391 21.6512C13.9065 21.4997 13.6787 21.0262 13.8303 20.5937C13.9818 20.1611 14.4553 19.9334 14.8879 20.0849C15.3716 20.2543 15.8795 20.3403 16.3977 20.3403C18.9145 20.3403 20.962 18.2927 20.962 15.7759C20.962 13.2592 18.9145 11.2116 16.3977 11.2116C15.854 11.2116 15.3224 11.306 14.8178 11.4922C14.3878 11.6509 13.9106 11.431 13.7519 11.001C13.5933 10.571 13.8132 10.0938 14.2432 9.9351C14.9324 9.68079 15.6572 9.55187 16.3977 9.55187C19.8297 9.55187 22.6218 12.344 22.6218 15.7759ZM5.80596 7.60266C5.95774 6.07382 6.66924 4.65996 7.80932 3.62154C8.95737 2.57585 10.4455 2 11.9994 2C13.5449 2 15.027 2.57046 16.1725 3.60622C17.3095 4.63432 18.0252 6.0366 18.1878 7.55481C18.2366 8.01054 17.9067 8.41954 17.4509 8.46834C16.9955 8.5171 16.5862 8.18722 16.5374 7.73154C16.2889 5.41025 14.3379 3.65975 11.9994 3.65975C9.6426 3.65975 7.69007 5.42531 7.45762 7.76664C7.41513 8.19481 7.05417 8.51456 6.6328 8.51456C6.60534 8.51456 6.5777 8.5132 6.54982 8.51046C6.09372 8.46519 5.76069 8.05876 5.80596 7.60266ZM14.4767 7.9761C14.522 8.4322 14.189 8.83863 13.7329 8.8839C13.705 8.88664 13.6773 8.88801 13.6499 8.88801C13.2285 8.88801 12.8676 8.56826 12.8251 8.14008C12.7829 7.71485 12.4279 7.39419 11.9994 7.39419C11.5815 7.39419 11.2275 7.70589 11.176 8.11925C11.1193 8.57407 10.7049 8.8971 10.2498 8.84008C9.79496 8.7834 9.47226 8.36871 9.52894 7.91394C9.68384 6.67141 10.7459 5.73444 11.9994 5.73444C13.2848 5.73444 14.3499 6.69813 14.4767 7.9761ZM16.9845 16.3628C17.3081 16.0392 17.3081 15.5127 16.9845 15.1891C16.7486 14.9532 16.396 14.8816 16.0861 15.0067C15.6611 15.1784 15.1775 14.973 15.0059 14.548C14.8342 14.1231 15.0396 13.6394 15.4645 13.4678C16.3931 13.0927 17.4504 13.3077 18.1582 14.0155C19.1289 14.9862 19.1289 16.5656 18.1582 17.5363C17.6816 18.0129 17.0464 18.2661 16.3989 18.2661C16.0848 18.2661 15.7679 18.2066 15.4645 18.0841C15.0396 17.9124 14.8342 17.4288 15.0059 17.0038C15.1775 16.5788 15.6613 16.3736 16.0861 16.5451C16.396 16.6703 16.7485 16.5987 16.9845 16.3628Z" fill="#C83E93"/>
</svg>
