<svg width="20" height="20" viewBox="0 0 20 20" fill="none" xmlns="http://www.w3.org/2000/svg">
<path d="M19.337 8.70619L18.5165 7.92895L19.3057 1.77129C19.3263 1.61038 19.2677 1.44943 19.1467 1.33482C19.0257 1.22021 18.8559 1.16473 18.686 1.18421L12.1867 1.93177L11.3662 1.15447C11.1836 0.981499 10.8995 0.950175 10.68 1.07885L6.36435 3.60673L5.66381 2.94305C5.54154 2.82721 5.36936 2.77187 5.19789 2.79303C5.02642 2.8143 4.87517 2.90989 4.78853 3.05168L2.36849 7.01218L2.13101 6.78722C2.0001 6.66322 1.81274 6.60901 1.63103 6.64251C1.44936 6.67605 1.29714 6.79295 1.22493 6.95442C0.522685 8.52478 0.325759 10.2441 0.655491 11.9267C0.993275 13.6502 1.86592 15.2189 3.17906 16.4629C3.17909 16.463 3.17909 16.463 3.17913 16.463V16.463C3.17913 16.463 3.17913 16.4631 3.17917 16.4631C4.9059 18.0989 7.20178 18.9999 9.64389 19H9.64426C10.8804 19 12.0819 18.7693 13.2153 18.3143C13.3857 18.2459 13.5091 18.1017 13.5445 17.9295C13.5799 17.7574 13.5226 17.5799 13.3917 17.4558L13.1544 17.231L17.3344 14.938C17.4841 14.8559 17.5849 14.7126 17.6074 14.5502C17.6299 14.3877 17.5714 14.2246 17.4491 14.1088L16.7486 13.4451L19.4168 9.35634C19.5526 9.14835 19.5195 8.87916 19.337 8.70619ZM15.5701 13.2456C15.4343 13.4536 15.4674 13.7228 15.6499 13.8958L16.1497 14.3692L11.9696 16.6622C11.8199 16.7443 11.719 16.8876 11.6966 17.0501C11.6741 17.2125 11.7326 17.3757 11.8549 17.4915L11.987 17.6166C11.2307 17.835 10.4459 17.9454 9.64434 17.9454C9.64426 17.9454 9.64408 17.9454 9.644 17.9454C7.68584 17.9453 5.83494 17.2854 4.37356 16.0773L5.82756 14.6997H10.6568C10.9642 14.6997 11.2134 14.4636 11.2134 14.1724C11.2134 13.8812 10.9642 13.6451 10.6568 13.6451H6.94077L9.87574 10.8644L14.7051 10.8645C15.0125 10.8645 15.2617 10.6284 15.2617 10.3371C15.2617 10.0459 15.0125 9.80978 14.7051 9.80978L10.9889 9.80971L14.0867 6.8749C14.304 6.66899 14.304 6.33507 14.0867 6.12913C13.8693 5.92314 13.5169 5.92321 13.2995 6.12913L10.2014 9.06436L10.2015 5.54286C10.2015 5.25162 9.95229 5.01551 9.64486 5.01551C9.33746 5.01551 9.08825 5.25162 9.08825 5.54286L9.08814 10.1191L6.15332 12.8996L6.15321 9.37827C6.15321 9.087 5.904 8.85093 5.59661 8.85093C5.28921 8.85093 5.04 9.08704 5.04 9.37827L5.04015 13.9542L3.58612 15.3318C1.75475 13.3432 1.14909 10.6275 1.96102 8.11767L2.09368 8.24336C2.21598 8.35923 2.38816 8.41453 2.55959 8.39333C2.73106 8.37206 2.88231 8.27644 2.96896 8.13469L5.38899 4.17426L5.88875 4.64774C6.07135 4.82075 6.35544 4.852 6.575 4.7234L10.8906 2.19552L11.5912 2.85923C11.7122 2.97384 11.8821 3.02929 12.0519 3.00981L18.115 2.31238L17.3787 8.05678C17.3581 8.21766 17.4167 8.3786 17.5378 8.49325L18.2383 9.15689L15.5701 13.2456Z" fill="#919191" stroke="#919191" stroke-width="0.5"/>
</svg>
