<svg width="24" height="24" viewBox="0 0 24 24" fill="none" xmlns="http://www.w3.org/2000/svg">
<path d="M12.0009 2C11.2125 2 10.4523 2.09971 9.72651 2.26855C9.57518 2.30388 9.43855 2.38534 9.33551 2.50167C9.23247 2.61801 9.16811 2.76347 9.15132 2.91797L8.99214 4.36914C8.94008 4.84468 8.66538 5.26543 8.25093 5.50488C7.8373 5.74386 7.33524 5.77033 6.89741 5.57812H6.89644L5.56343 4.99121C5.42125 4.92864 5.26314 4.91176 5.11096 4.9429C4.95877 4.97403 4.82 5.05165 4.71382 5.16504C3.67757 6.26979 2.88227 7.60753 2.43062 9.10059C2.38563 9.24919 2.38786 9.40809 2.43701 9.55537C2.48617 9.70265 2.57981 9.83105 2.70503 9.92285L3.88765 10.79C4.27382 11.074 4.50093 11.5214 4.50093 12C4.50093 12.4789 4.27383 12.9267 3.88765 13.21L2.70503 14.0762C2.57981 14.168 2.48617 14.2964 2.43701 14.4437C2.38786 14.5909 2.38563 14.7498 2.43062 14.8984C2.88222 16.3913 3.67689 17.7301 4.71382 18.835C4.82012 18.9482 4.95894 19.0256 5.11112 19.0566C5.2633 19.0875 5.42134 19.0705 5.56343 19.0078L6.89644 18.4209C7.33447 18.2283 7.83701 18.256 8.25093 18.4951C8.66538 18.7346 8.94008 19.1553 8.99214 19.6309L9.15132 21.082C9.16823 21.2362 9.23254 21.3814 9.33537 21.4975C9.43821 21.6136 9.57452 21.695 9.72554 21.7305C10.4516 21.8999 11.2125 22 12.0009 22C12.7894 22 13.5496 21.9003 14.2753 21.7314C14.4267 21.6961 14.5633 21.6147 14.6663 21.4983C14.7694 21.382 14.8337 21.2365 14.8505 21.082L15.0097 19.6309C15.0618 19.1553 15.3365 18.7346 15.7509 18.4951C16.1646 18.2561 16.6666 18.2287 17.1044 18.4209L18.4384 19.0078C18.5805 19.0705 18.7386 19.0875 18.8907 19.0566C19.0429 19.0256 19.1817 18.9482 19.288 18.835C20.3243 17.7302 21.1196 16.3915 21.5712 14.8984C21.6162 14.7498 21.614 14.5909 21.5648 14.4437C21.5157 14.2964 21.422 14.168 21.2968 14.0762L20.1142 13.21C19.728 12.9267 19.5009 12.4789 19.5009 12C19.5009 11.5211 19.728 11.0733 20.1142 10.79L21.2968 9.92383C21.422 9.83203 21.5157 9.70363 21.5648 9.55635C21.614 9.40907 21.6162 9.25017 21.5712 9.10156C21.1196 7.60851 20.3243 6.26979 19.288 5.16504C19.1817 5.05182 19.0429 4.97438 18.8907 4.94342C18.7386 4.91246 18.5805 4.9295 18.4384 4.99219L17.1044 5.5791C16.6666 5.77131 16.1646 5.74386 15.7509 5.50488C15.3365 5.26543 15.0618 4.84468 15.0097 4.36914L14.8505 2.91797C14.8336 2.76378 14.7693 2.61862 14.6665 2.50249C14.5636 2.38636 14.4273 2.30497 14.2763 2.26953C13.5502 2.10008 12.7894 2 12.0009 2ZM12.0009 3.5C12.4881 3.5 12.9559 3.58744 13.4248 3.66992L13.5185 4.53223C13.6224 5.48169 14.1744 6.32617 15.0009 6.80371C15.828 7.28157 16.835 7.3365 17.7089 6.95215L18.5019 6.60352C19.1108 7.3347 19.5929 8.16059 19.9296 9.06543L19.2265 9.58105C18.4567 10.1458 18.0009 11.0449 18.0009 12C18.0009 12.9551 18.4567 13.8542 19.2265 14.4189L19.9296 14.9346C19.5929 15.8394 19.1108 16.6653 18.5019 17.3965L17.7089 17.0479C16.835 16.6635 15.828 16.7184 15.0009 17.1963C14.1744 17.6738 13.6224 18.5183 13.5185 19.4678L13.4248 20.3301C12.9559 20.4123 12.4878 20.5 12.0009 20.5C11.5138 20.5 11.046 20.4126 10.5771 20.3301L10.4833 19.4678C10.3794 18.5183 9.82747 17.6738 9.00093 17.1963C8.17384 16.7184 7.16688 16.6635 6.29292 17.0479L5.49995 17.3965C4.89092 16.6654 4.4089 15.8395 4.07222 14.9346L4.77534 14.4189C5.54516 13.8542 6.00093 12.9551 6.00093 12C6.00093 11.0449 5.54479 10.1452 4.77534 9.58008L4.07222 9.06445C4.40909 8.15927 4.89165 7.33392 5.50093 6.60254L6.29292 6.95117C7.16688 7.33553 8.17384 7.28157 9.00093 6.80371C9.82747 6.32617 10.3794 5.48169 10.4833 4.53223L10.5771 3.66992C11.0459 3.58767 11.514 3.5 12.0009 3.5ZM12.0009 8C9.80067 8 8.00093 9.79975 8.00093 12C8.00093 14.2003 9.80067 16 12.0009 16C14.2012 16 16.0009 14.2003 16.0009 12C16.0009 9.79975 14.2012 8 12.0009 8ZM12.0009 9.5C13.3905 9.5 14.5009 10.6104 14.5009 12C14.5009 13.3896 13.3905 14.5 12.0009 14.5C10.6113 14.5 9.50093 13.3896 9.50093 12C9.50093 10.6104 10.6113 9.5 12.0009 9.5Z" fill="#C83E93"/>
</svg>
