<svg width="24" height="24" viewBox="0 0 24 24" fill="none" xmlns="http://www.w3.org/2000/svg">
<path d="M11.9999 2C8.82538 2 5.99204 3.48845 4.16197 5.7998C4.10034 5.87696 4.05456 5.96553 4.02724 6.06042C3.99993 6.15531 3.99162 6.25467 4.00279 6.35278C4.01396 6.45089 4.0444 6.54583 4.09235 6.63215C4.1403 6.71847 4.20483 6.79448 4.28222 6.8558C4.35962 6.91713 4.44836 6.96256 4.54336 6.98951C4.63836 7.01646 4.73774 7.02438 4.83581 7.01283C4.93388 7.00128 5.0287 6.97047 5.11484 6.92218C5.20097 6.8739 5.27672 6.80908 5.33775 6.73145C6.89567 4.7638 9.29333 3.5 11.9999 3.5C16.703 3.5 20.4999 7.29685 20.4999 12C20.4999 16.7031 16.703 20.5 11.9999 20.5C9.29333 20.5 6.89567 19.2362 5.33775 17.2686C5.27672 17.1909 5.20097 17.1261 5.11484 17.0778C5.0287 17.0295 4.93388 16.9987 4.83581 16.9872C4.73774 16.9756 4.63836 16.9835 4.54336 17.0105C4.44836 17.0374 4.35962 17.0829 4.28222 17.1442C4.20483 17.2055 4.1403 17.2815 4.09235 17.3678C4.0444 17.4542 4.01396 17.5491 4.00279 17.6472C3.99162 17.7453 3.99993 17.8447 4.02724 17.9396C4.05456 18.0345 4.10034 18.123 4.16197 18.2002C5.99204 20.5116 8.82538 22 11.9999 22C17.5137 22 21.9999 17.5139 21.9999 12C21.9999 6.48615 17.5137 2 11.9999 2ZM5.73521 8.24316C5.54043 8.24884 5.3555 8.3301 5.21958 8.46973L2.21958 11.4697C2.07898 11.6104 2 11.8011 2 12C2 12.1989 2.07898 12.3896 2.21958 12.5303L5.21958 15.5303C5.28869 15.6023 5.37147 15.6597 5.46306 15.6993C5.55466 15.7389 5.65323 15.7598 5.75301 15.7608C5.85279 15.7618 5.95177 15.7429 6.04415 15.7052C6.13654 15.6675 6.22046 15.6117 6.29102 15.5412C6.36158 15.4706 6.41735 15.3867 6.45507 15.2943C6.49278 15.2019 6.51169 15.1029 6.51067 15.0032C6.50966 14.9034 6.48875 14.8048 6.44916 14.7132C6.40957 14.6216 6.35211 14.5388 6.28013 14.4697L4.55943 12.749L14.7508 12.7402C14.8502 12.7415 14.9489 12.723 15.041 12.6858C15.1332 12.6486 15.2171 12.5935 15.2877 12.5236C15.3584 12.4538 15.4145 12.3705 15.4528 12.2788C15.491 12.1871 15.5106 12.0886 15.5105 11.9892C15.5104 11.8899 15.4905 11.7915 15.452 11.6998C15.4135 11.6082 15.3572 11.5251 15.2864 11.4554C15.2155 11.3857 15.1315 11.3308 15.0392 11.2939C14.9469 11.2569 14.8483 11.2387 14.7489 11.2402L4.56138 11.249L6.28013 9.53027C6.38833 9.4249 6.4622 9.28931 6.49206 9.14126C6.52193 8.9932 6.50641 8.83958 6.44752 8.7005C6.38864 8.56141 6.28914 8.44335 6.16204 8.36175C6.03495 8.28015 5.88618 8.23882 5.73521 8.24316Z" fill="#C83E93"/>
</svg>
