<svg width="30" height="25" viewBox="0 0 30 25" fill="none" xmlns="http://www.w3.org/2000/svg">
<path d="M9.4377 24.3759C20.7557 24.3759 26.9479 14.9968 26.9479 6.86574C26.9479 6.60207 26.942 6.33254 26.9303 6.06887C28.1348 5.19774 29.1744 4.11873 30 2.88254C28.8782 3.38167 27.6871 3.70764 26.4674 3.84934C27.7516 3.07955 28.7132 1.87026 29.1738 0.445624C27.9657 1.16161 26.6445 1.66668 25.2668 1.93918C24.3385 0.952867 23.1112 0.299811 21.7746 0.0809793C20.438 -0.137852 19.0665 0.0897285 17.8722 0.728536C16.6779 1.36734 15.7273 2.3818 15.1673 3.61506C14.6074 4.84831 14.4693 6.23169 14.7744 7.55129C12.3281 7.42853 9.93492 6.79305 7.74998 5.68604C5.56503 4.57903 3.63712 3.02521 2.09121 1.12531C1.3055 2.47997 1.06507 4.08297 1.41879 5.60853C1.77251 7.13409 2.69383 8.46773 3.99551 9.3384C3.01829 9.30737 2.06247 9.04427 1.20703 8.57082V8.64699C1.20616 10.0686 1.69762 11.4467 2.59789 12.5469C3.49815 13.6471 4.75165 14.4016 6.14531 14.6821C5.24007 14.9298 4.28998 14.9659 3.36855 14.7876C3.76182 16.0102 4.52697 17.0795 5.55721 17.8463C6.58746 18.6131 7.8314 19.0392 9.11543 19.065C6.93553 20.7773 4.24272 21.7061 1.4707 21.7017C0.979109 21.7009 0.487999 21.6708 0 21.6114C2.81607 23.4181 6.09191 24.3776 9.4377 24.3759Z" fill="white"/>
</svg>
