<svg width="20" height="20" viewBox="0 0 20 20" fill="none" xmlns="http://www.w3.org/2000/svg">
<path d="M10.0049 0.499984C9.86475 0.499109 9.72713 0.53753 9.60769 0.610888C9.48824 0.684247 9.39174 0.789608 9.32913 0.915023L6.75296 6.06737L0.635776 7.00877C0.498851 7.02993 0.370462 7.0886 0.264847 7.17827C0.159231 7.26795 0.0805168 7.38512 0.0374324 7.5168C-0.005652 7.64848 -0.0114225 7.78952 0.0207607 7.92428C0.0529439 8.05904 0.121823 8.18226 0.21976 8.28026L4.45121 12.5117L3.50882 18.6357C3.48774 18.7727 3.50504 18.9129 3.5588 19.0407C3.61256 19.1685 3.70068 19.2788 3.81337 19.3596C3.92607 19.4403 4.05893 19.4882 4.19721 19.498C4.33548 19.5078 4.47377 19.4791 4.59671 19.415L10 16.5957L15.4034 19.415C15.5263 19.4791 15.6646 19.5078 15.8029 19.498C15.9411 19.4882 16.074 19.4403 16.1867 19.3596C16.2994 19.2788 16.3875 19.1685 16.4413 19.0407C16.495 18.9129 16.5123 18.7727 16.4912 18.6357L15.5489 12.5117L19.7803 8.28026C19.8782 8.18226 19.9471 8.05904 19.9793 7.92428C20.0115 7.78952 20.0057 7.64848 19.9626 7.5168C19.9196 7.38512 19.8408 7.26795 19.7352 7.17827C19.6296 7.0886 19.5012 7.02993 19.3643 7.00877L13.2471 6.06737L10.6709 0.915023C10.6091 0.791093 10.5141 0.686714 10.3965 0.613456C10.279 0.540198 10.1434 0.500923 10.0049 0.499984V0.499984ZM10 2.92674L12.0791 7.08495C12.1327 7.19222 12.2112 7.28509 12.308 7.35578C12.4049 7.42646 12.5173 7.4729 12.6358 7.4912L17.6729 8.26659L14.2198 11.7197C14.1364 11.803 14.0739 11.9048 14.0373 12.0168C14.0006 12.1288 13.9909 12.2478 14.0088 12.3642L14.7832 17.3994L10.3467 15.0849C10.2397 15.0292 10.1207 15 10 15C9.87932 15 9.7604 15.0292 9.65335 15.0849L5.21683 17.3994L5.99124 12.3642C6.00918 12.2478 5.99943 12.1288 5.96278 12.0168C5.92613 11.9048 5.86362 11.803 5.78031 11.7197L2.32718 8.26659L7.36429 7.4912C7.48279 7.4729 7.59518 7.42646 7.69203 7.35578C7.78888 7.28509 7.86737 7.19222 7.92093 7.08495L10 2.92674Z" fill="#01CDFD"/>
</svg>
