<svg width="182" height="182" viewBox="0 0 182 182" fill="none" xmlns="http://www.w3.org/2000/svg">
<g filter="url(#filter0_d_1054_1816)">
<circle cx="91" cy="71" r="51" fill="#C83E93"/>
</g>
<path d="M78.3998 50.2C77.9401 50.2 77.4993 50.3826 77.1742 50.7076C76.8491 51.0327 76.6665 51.4736 76.6665 51.9333C76.6665 51.9355 76.6665 51.9378 76.6665 51.9401V71V90.0598C76.6665 90.0621 76.6665 90.0644 76.6665 90.0666C76.6665 90.5263 76.8491 90.9672 77.1742 91.2923C77.4993 91.6173 77.9401 91.7999 78.3998 91.7999C78.7607 91.7989 79.1121 91.6853 79.4053 91.4749L79.4087 91.4783L113.788 72.5742C114.089 72.4362 114.345 72.2145 114.524 71.9354C114.704 71.6564 114.799 71.3317 114.8 71C114.8 70.6589 114.7 70.3254 114.511 70.0411C114.323 69.7569 114.054 69.5346 113.74 69.402L79.4087 50.5216H79.4053C79.1117 50.3124 78.7603 50.2 78.3998 50.2Z" fill="white"/>
<defs>
<filter id="filter0_d_1054_1816" x="0" y="0" width="182" height="182" filterUnits="userSpaceOnUse" color-interpolation-filters="sRGB">
<feFlood flood-opacity="0" result="BackgroundImageFix"/>
<feColorMatrix in="SourceAlpha" type="matrix" values="0 0 0 0 0 0 0 0 0 0 0 0 0 0 0 0 0 0 127 0" result="hardAlpha"/>
<feOffset dy="20"/>
<feGaussianBlur stdDeviation="20"/>
<feComposite in2="hardAlpha" operator="out"/>
<feColorMatrix type="matrix" values="0 0 0 0 0 0 0 0 0 0 0 0 0 0 0 0 0 0 0.1 0"/>
<feBlend mode="normal" in2="BackgroundImageFix" result="effect1_dropShadow_1054_1816"/>
<feBlend mode="normal" in="SourceGraphic" in2="effect1_dropShadow_1054_1816" result="shape"/>
</filter>
</defs>
</svg>
